<svg width="24" height="24" viewBox="0 0 24 24" fill="black" xmlns="http://www.w3.org/2000/svg">
    <g clip-path="url(#clip0_74_143)">
        <path d="M24 9.99999H21C20.9979 8.14413 20.2597 6.36488 18.9474 5.05258C17.6351 3.74029 15.8559 3.00211 14 2.99999V-7.62939e-06C16.6513 0.00290397 19.1931 1.05741 21.0679 2.93214C22.9426 4.80687 23.9971 7.34872 24 9.99999ZM14 4.99999V7.99999C14.5305 7.99999 15.0392 8.21071 15.4142 8.58578C15.7893 8.96085 16 9.46956 16 9.99999H19C18.9984 8.6744 18.4711 7.40355 17.5338 6.46621C16.5965 5.52887 15.3256 5.00158 14 4.99999ZM20.265 22.235L23.91 18.59L17.269 11.948L14.3 14.923C11.9973 13.8535 10.15 12.0001 9.08802 9.69399L12.052 6.73099L5.41002 0.0899924L1.76602 3.73399C1.20003 4.30191 0.752468 4.97658 0.449309 5.71886C0.146151 6.46113 -0.0065659 7.25622 2.12548e-05 8.05799C2.12548e-05 15.209 8.79102 24 15.942 24C16.7436 24.0066 17.5384 23.854 18.2805 23.551C19.0226 23.248 19.6971 22.8007 20.265 22.235ZM7.80902 6.73099L5.54102 8.99999L5.91002 9.91899C6.61027 11.791 7.70494 13.4905 9.11977 14.9022C10.5346 16.3139 12.2365 17.4049 14.11 18.101L15.018 18.447L17.273 16.191L19.673 18.591L18.149 20.116C17.8591 20.4017 17.5154 20.6271 17.1377 20.779C16.7601 20.9309 16.356 21.0064 15.949 21.001C10.949 21 3.00002 13.934 3.00002 8.05799C2.99499 7.65093 3.07069 7.24691 3.22277 6.86929C3.37485 6.49167 3.60028 6.14795 3.88602 5.85799L5.41002 4.33199L7.80902 6.73099Z"
              fill="black"/>
    </g>
    <defs>
        <clipPath id="clip0_74_143">
            <rect width="24" height="24" fill="white"/>
        </clipPath>
    </defs>
</svg>
