<svg width="24" height="24" viewBox="0 0 24 24" fill="#f1f1f1" xmlns="http://www.w3.org/2000/svg">
    <g clip-path="url(#clip0_77_165)">
        <path d="M9.87812 12.5463C10.4417 13.1076 11.2047 13.4228 12.0001 13.4228C12.7955 13.4228 13.5585 13.1076 14.1221 12.5463L23.7811 2.8863C23.5587 2.33028 23.1751 1.85353 22.6794 1.51741C22.1838 1.1813 21.599 1.0012 21.0001 1.0003H3.00012C2.40128 1.0012 1.81641 1.1813 1.32079 1.51741C0.825171 1.85353 0.441485 2.33028 0.219116 2.8863L9.87812 12.5463Z"
              fill="#f1f1f1"/>
        <path d="M15.536 13.9603C14.5974 14.8966 13.3257 15.4223 12 15.4223C10.6743 15.4223 9.40263 14.8966 8.464 13.9603L0 5.50031V23.0003H24V5.50031L15.536 13.9603Z"
              fill="#f1f1f1"/>
    </g>
    <defs>
        <clipPath id="clip0_77_165">
            <rect width="24" height="24" fill="white"/>
        </clipPath>
    </defs>
</svg>
