<svg width="24" height="24" viewBox="0 0 24 24" fill="none" xmlns="http://www.w3.org/2000/svg">
    <g clip-path="url(#clip0_74_151)">
        <path d="M17.613 12.848L23.878 19.113L20.707 22.284C20.1543 22.8344 19.4978 23.2695 18.7756 23.5641C18.0534 23.8586 17.2799 24.0068 16.5 24C9.25198 24 -1.85217e-05 14.748 -1.85217e-05 7.49999C-0.00636183 6.71997 0.142033 5.94644 0.436581 5.22415C0.731129 4.50185 1.16598 3.84514 1.71598 3.29199L4.88698 0.121992L11.152 6.38699L7.02698 10.512C8.2533 13.4263 10.5686 15.7469 13.48 16.98L17.613 12.848ZM22 9.99999H24C23.9971 7.34872 22.9426 4.80687 21.0678 2.93214C19.1931 1.05741 16.6513 0.00290397 14 -7.62939e-06V1.99999C16.121 2.00237 18.1544 2.84599 19.6542 4.34577C21.154 5.84554 21.9976 7.87899 22 9.99999ZM18 9.99999H20C19.9984 8.40918 19.3657 6.88398 18.2409 5.75911C17.116 4.63423 15.5908 4.00158 14 3.99999V5.99999C15.0608 5.99999 16.0783 6.42142 16.8284 7.17157C17.5786 7.92171 18 8.93913 18 9.99999Z"
              fill="#f1f1f1"/>
    </g>
    <defs>
        <clipPath id="clip0_74_151">
            <rect width="24" height="24" fill="white"/>
        </clipPath>
    </defs>
</svg>
