<svg width="18" height="18" viewBox="0 0 18 18" fill="black" xmlns="http://www.w3.org/2000/svg">
    <path d="M9.00001 2.2C11.2 2.2 11.5 2.2 12.4 2.2C13.2 2.2 13.6 2.4 13.9 2.5C14.3 2.7 14.6 2.8 14.9 3.1C15.2 3.4 15.4 3.7 15.5 4.1C15.6 4.4 15.7 4.8 15.8 5.6C15.8 6.5 15.8 6.7 15.8 9C15.8 11.3 15.8 11.5 15.8 12.4C15.8 13.2 15.6 13.6 15.5 13.9C15.3 14.3 15.2 14.6 14.9 14.9C14.6 15.2 14.3 15.4 13.9 15.5C13.6 15.6 13.2 15.7 12.4 15.8C11.5 15.8 11.3 15.8 9.00001 15.8C6.70001 15.8 6.50001 15.8 5.60001 15.8C4.80001 15.8 4.40001 15.6 4.10001 15.5C3.70001 15.3 3.40001 15.2 3.10001 14.9C2.80001 14.6 2.60001 14.3 2.50001 13.9C2.40001 13.6 2.30001 13.2 2.20001 12.4C2.20001 11.5 2.20001 11.3 2.20001 9C2.20001 6.7 2.20001 6.5 2.20001 5.6C2.20001 4.8 2.40001 4.4 2.50001 4.1C2.70001 3.7 2.80001 3.4 3.10001 3.1C3.40001 2.8 3.70001 2.6 4.10001 2.5C4.40001 2.4 4.80001 2.3 5.60001 2.2C6.50001 2.2 6.80001 2.2 9.00001 2.2ZM9.00001 0.7C6.70001 0.7 6.50001 0.7 5.60001 0.7C4.70001 0.7 4.10001 0.9 3.60001 1.1C3.10001 1.3 2.60001 1.6 2.10001 2.1C1.60001 2.6 1.40001 3 1.10001 3.6C0.900013 4.1 0.800012 4.7 0.700012 5.6C0.700012 6.5 0.700012 6.8 0.700012 9C0.700012 11.3 0.700012 11.5 0.700012 12.4C0.700012 13.3 0.900013 13.9 1.10001 14.4C1.30001 14.9 1.60001 15.4 2.10001 15.9C2.60001 16.4 3.00001 16.6 3.60001 16.9C4.10001 17.1 4.70001 17.2 5.60001 17.3C6.50001 17.3 6.80001 17.3 9.00001 17.3C11.2 17.3 11.5 17.3 12.4 17.3C13.3 17.3 13.9 17.1 14.4 16.9C14.9 16.7 15.4 16.4 15.9 15.9C16.4 15.4 16.6 15 16.9 14.4C17.1 13.9 17.2 13.3 17.3 12.4C17.3 11.5 17.3 11.2 17.3 9C17.3 6.8 17.3 6.5 17.3 5.6C17.3 4.7 17.1 4.1 16.9 3.6C16.7 3.1 16.4 2.6 15.9 2.1C15.4 1.6 15 1.4 14.4 1.1C13.9 0.9 13.3 0.8 12.4 0.7C11.5 0.7 11.3 0.7 9.00001 0.7Z"
          fill="black"/>
    <path d="M9.00001 4.7C6.60001 4.7 4.70001 6.6 4.70001 9C4.70001 11.4 6.60001 13.3 9.00001 13.3C11.4 13.3 13.3 11.4 13.3 9C13.3 6.6 11.4 4.7 9.00001 4.7ZM9.00001 11.8C7.50001 11.8 6.20001 10.6 6.20001 9C6.20001 7.5 7.40001 6.2 9.00001 6.2C10.5 6.2 11.8 7.4 11.8 9C11.8 10.5 10.5 11.8 9.00001 11.8Z"
          fill="black"/>
    <path d="M13.4 5.6C13.9523 5.6 14.4 5.15229 14.4 4.6C14.4 4.04772 13.9523 3.6 13.4 3.6C12.8477 3.6 12.4 4.04772 12.4 4.6C12.4 5.15229 12.8477 5.6 13.4 5.6Z"
          fill="black"/>
</svg>
