<svg width="64" height="64" viewBox="0 0 64 64" fill="none" xmlns="http://www.w3.org/2000/svg">
<g clip-path="url(#clip0_157_231)">
<path d="M44.5641 2.57732C45.7053 2.9567 46.5793 3.60948 46.911 4.83517C46.979 5.13384 47.01 5.43975 47.0032 5.74599C47.0032 5.94566 47.0124 6.05318 47.2858 6.0071C49.8416 5.54632 51.1733 6.59844 51.3668 9.27407C51.9735 9.13737 52.5695 8.96688 53.21 9.10819C54.4587 9.37237 55.5554 10.4429 55.5922 11.7193C55.6629 14.1292 55.6352 16.5437 55.6291 18.9567C55.631 19.0679 55.6103 19.1783 55.5682 19.2812C55.5261 19.3841 55.4634 19.4773 55.3841 19.5552C55.3048 19.6331 55.2104 19.694 55.1068 19.7342C55.0031 19.7745 54.8923 19.7932 54.7812 19.7892C54.5669 19.792 54.3596 19.7125 54.2022 19.5671C54.0447 19.4216 53.9491 19.2213 53.9349 19.0074C53.9149 18.8171 53.9088 18.6256 53.9165 18.4345C53.9165 16.3656 53.9272 14.2966 53.9165 12.2292C53.9073 11.1848 53.1101 10.5581 52.2269 10.8469C51.6893 11.0251 51.356 11.4905 51.3514 12.1233C51.3422 13.4058 51.3514 14.6898 51.3514 15.9724C51.3514 16.6896 50.8722 17.109 50.264 16.9431C49.751 16.8048 49.622 16.4162 49.625 15.9263C49.6322 13.5896 49.6322 11.2529 49.625 8.9162C49.625 8.10675 49.0552 7.53384 48.321 7.53384C47.616 7.53384 47.0784 8.09293 47.0278 8.87933C47.0185 9.03293 47.0278 9.18653 47.0278 9.34012C47.0278 11.4659 47.0278 13.5916 47.0278 15.7174C47.0366 15.9087 47.0283 16.1004 47.0032 16.2903C46.9818 16.4735 46.8953 16.6429 46.7594 16.7676C46.6234 16.8922 46.4472 16.9638 46.2629 16.9692C46.0809 16.998 45.8946 16.9631 45.7354 16.8705C45.5762 16.7779 45.4538 16.6332 45.3889 16.4608C45.307 16.2247 45.2771 15.9737 45.3013 15.7251C45.3013 12.4688 45.3013 9.21263 45.3013 5.95642C45.3139 5.68915 45.2896 5.42144 45.2292 5.16079C45.1327 4.88804 44.9472 4.65573 44.7025 4.50135C44.4578 4.34697 44.1683 4.27952 43.8806 4.30988C43.5828 4.34446 43.3066 4.48237 43.1001 4.69959C42.8935 4.91681 42.7697 5.19959 42.7501 5.49871C42.7163 6.05318 42.7332 6.60919 42.7332 7.16521C42.7332 9.99955 42.7332 12.8339 42.7332 15.6682C42.7399 15.8409 42.7358 16.0137 42.7209 16.1858C42.7048 16.4079 42.6023 16.6148 42.4356 16.7624C42.2688 16.9099 42.0509 16.9863 41.8285 16.9753C41.3524 16.9584 41.036 16.639 41.0129 16.1213C40.996 15.7573 41.0129 15.3933 41.0129 15.0293C41.0129 13.0571 41.0129 11.0844 41.0129 9.11126C41.0129 8.15282 40.5061 7.54306 39.7197 7.53538C38.9333 7.5277 38.408 8.16357 38.408 9.10204C38.408 13.8712 38.3819 18.6403 38.4234 23.4079C38.4326 24.5476 37.8489 24.9193 36.829 24.5122C35.2347 23.8733 33.6204 23.2835 32.0077 22.6937C31.2397 22.4126 30.5132 22.6752 30.1784 23.3081C30.0248 23.6045 30.0248 23.8226 30.3565 24.0223C33.0772 25.6924 35.7907 27.3706 38.4971 29.0571C38.5312 29.0873 38.5711 29.1103 38.6143 29.1246C38.6575 29.1389 38.7033 29.1443 38.7487 29.1404C38.794 29.1365 38.8381 29.1234 38.8783 29.102C38.9185 29.0806 38.9539 29.0512 38.9824 29.0156C39.712 28.3644 40.5291 28.349 41.3816 28.7591C42.0648 29.0792 42.6063 29.6396 42.9029 30.3333C43.1995 31.027 43.2304 31.8056 42.9897 32.5207C42.5551 33.8232 42.0574 35.1057 41.5659 36.3882C41.4353 36.7276 41.4369 36.849 41.8562 36.849C44.6332 36.8336 47.4102 36.8336 50.1872 36.849C50.5282 36.849 50.5911 36.7353 50.5881 36.4251C50.5743 34.6833 50.5973 32.94 50.5727 31.2028C50.5727 30.6484 50.7478 30.2567 51.2132 29.9541C51.8384 29.5471 52.4328 29.094 53.0564 28.6762C53.3404 28.498 53.5723 28.2479 53.7285 27.9511C53.8846 27.6544 53.9596 27.3217 53.9457 26.9867C53.9349 25.6842 53.9457 24.3755 53.9457 23.0792C53.9392 22.9071 53.949 22.7349 53.9749 22.5647C54.067 22.0793 54.385 21.8259 54.8673 21.852C55.3204 21.8765 55.6352 22.1438 55.6506 22.6199C55.6736 24.3233 55.7565 26.0313 55.606 27.7301C55.5308 28.5748 55.0639 29.266 54.4095 29.822C54.2582 29.9689 54.087 30.094 53.9011 30.1937C52.528 30.8081 52.1056 31.8464 52.2899 33.3056C52.4143 34.2855 52.3452 35.3023 52.3007 36.2899C52.2776 36.7922 52.4543 36.9043 52.9151 36.8705C53.488 36.829 54.064 36.8597 54.6384 36.8597C57.3278 36.8597 58.6518 38.5646 57.9514 41.1927C59.0604 41.1343 60.0265 41.4415 60.7469 42.3185C61.2077 42.8668 61.4476 43.5673 61.4196 44.283C61.3735 46.0493 60.2257 47.0395 57.976 47.2535C58.7793 49.7541 57.1358 51.6571 54.7075 51.5864C54.9225 52.2008 55.0377 52.8152 54.8949 53.4419C54.5877 54.8104 53.448 55.8134 52.038 55.8318C49.2226 55.8687 46.4072 55.8502 43.5903 55.8441C43.0327 55.8441 42.6779 55.5169 42.6518 55.0423C42.6257 54.5677 42.9836 54.1499 43.5519 54.1346C44.627 54.1069 45.7022 54.1238 46.7774 54.1223C48.4439 54.1223 50.1104 54.1223 51.7769 54.1223C52.6493 54.1223 53.2299 53.5863 53.2299 52.8367C53.2299 52.0872 52.6601 51.5588 51.7815 51.5542C50.5758 51.5542 49.3685 51.5542 48.1613 51.5542C47.4363 51.5542 47.037 51.247 47.0247 50.7064C47.0124 50.1657 47.4256 49.8308 48.1828 49.8308C50.4621 49.8308 52.7415 49.8308 55.0208 49.8308C55.9839 49.8308 56.5783 49.1827 56.4478 48.3103C56.3479 47.6452 55.8026 47.2351 54.9748 47.2351C52.7522 47.2351 50.5312 47.2351 48.3087 47.2351C48.1366 47.2405 47.9643 47.2359 47.7927 47.2213C47.5884 47.2126 47.3953 47.1252 47.2539 46.9775C47.1125 46.8298 47.0337 46.6332 47.0339 46.4287C47.0076 46.2344 47.0565 46.0374 47.1707 45.8781C47.285 45.7187 47.4558 45.6091 47.6483 45.5717C47.8525 45.5239 48.0622 45.5037 48.2719 45.5118C51.526 45.5118 54.7817 45.5118 58.039 45.5118C58.3065 45.5251 58.5746 45.5023 58.8361 45.4442C59.1121 45.3556 59.3486 45.1735 59.5047 44.9293C59.6609 44.6851 59.727 44.3941 59.6917 44.1064C59.6645 43.8187 59.5404 43.5488 59.3398 43.3409C59.1391 43.133 58.8738 42.9994 58.5873 42.9621C58.3775 42.9426 58.1666 42.937 57.956 42.9452H48.3594C48.1683 42.9544 47.9767 42.9483 47.7865 42.9268C47.3027 42.8469 46.9709 42.4491 47.0339 42.0052C47.0999 41.5321 47.378 41.251 47.8771 41.2372C48.0307 41.2372 48.1843 41.2372 48.3379 41.2372C50.5016 41.2372 52.6657 41.2372 54.8304 41.2372C55.059 41.2431 55.2876 41.2209 55.5108 41.1712C55.7843 41.1101 56.0284 40.9568 56.2021 40.7369C56.3758 40.5171 56.4685 40.2441 56.4646 39.9639C56.4722 39.6846 56.3871 39.4106 56.2226 39.1847C56.0581 38.9588 55.8235 38.7937 55.5554 38.7152C55.2969 38.6446 55.0286 38.6171 54.7612 38.6338H40.5675C39.391 38.6338 39.1007 38.1991 39.5185 37.0794C40.119 35.4697 40.7258 33.8631 41.3156 32.2504C41.5966 31.4824 41.377 30.8127 40.7703 30.4425C40.4416 30.2413 40.2035 30.2352 39.9716 30.6161C38.3752 33.2262 36.7676 35.8276 35.1487 38.4203C34.9951 38.6706 35.0381 38.7843 35.2301 38.9809C35.8598 39.6183 35.9674 40.3802 35.6525 41.205C35.0381 42.807 33.3178 43.6026 31.659 43.0174C30.2767 42.532 28.9097 42.0021 27.4751 41.4691V43.8637C27.4751 46.0278 27.4858 48.192 27.4659 50.3561C27.4659 50.7401 27.5765 50.8261 27.9436 50.8169C29.5901 50.797 31.2382 50.8169 32.8847 50.8016C33.3916 50.8016 33.7587 50.9552 34.0413 51.3914C34.4468 52.0165 34.9014 52.6109 35.3192 53.2345C35.5045 53.5381 35.7689 53.7856 36.0841 53.9504C36.3994 54.1152 36.7535 54.191 37.1086 54.1699C37.9687 54.1453 38.8319 54.1453 39.6936 54.1699C40.3709 54.1914 40.7687 54.6891 40.5906 55.2727C40.4677 55.6951 40.1559 55.8871 39.7258 55.8871C38.749 55.8871 37.7721 55.8994 36.7952 55.8779C35.6694 55.8533 34.7724 55.3557 34.0966 54.4679C33.6911 53.9365 33.3086 53.3927 32.9354 52.829C32.8804 52.7316 32.7987 52.6519 32.6999 52.5994C32.6011 52.5469 32.4894 52.5237 32.3778 52.5326C30.8834 52.5449 29.3889 52.5526 27.8959 52.5326C27.5089 52.5326 27.4582 52.6862 27.4689 53.0026C27.4889 53.6523 27.4597 54.3051 27.4782 54.9548C27.5427 57.3816 25.2695 58.8315 23.3311 58.0421C23.2771 58.0344 23.2223 58.0344 23.1683 58.0421C23.0884 58.4322 23.1468 58.8484 23.0285 59.2478C22.6031 60.687 21.2714 61.6254 19.8168 61.4749C19.0963 61.4018 18.427 61.0692 17.9336 60.539C17.4401 60.0089 17.1563 59.3174 17.1351 58.5935C17.1212 58.1327 17.0767 57.999 16.5499 58.1327C14.6883 58.6211 12.9281 57.3063 12.7945 55.3833C12.7806 55.1944 12.7945 55.0039 12.7945 54.7689C12.1801 54.898 11.6241 55.0761 11.0189 54.9609C10.3536 54.8483 9.74498 54.5164 9.29016 54.0178C8.83534 53.5193 8.56041 52.8829 8.50917 52.21C8.46156 51.4421 8.48461 50.6741 8.48461 49.9061C8.48461 45.7314 8.5061 41.5552 8.47077 37.3804C8.45695 35.823 8.97456 34.5589 10.3431 33.8278C11.5872 33.1643 12.0327 32.2749 11.8668 30.8895C11.7378 29.8143 11.8284 28.7085 11.8483 27.6179C11.8483 27.2923 11.7592 27.1879 11.4306 27.2002C10.7624 27.2232 10.0912 27.2078 9.41998 27.2002C6.83651 27.2002 5.48489 25.4092 6.20986 22.8918C5.8751 22.8913 5.54086 22.8657 5.20995 22.815C4.06567 22.5539 3.26544 21.8934 2.8707 20.7553C2.82002 20.6017 2.87069 20.4005 2.66487 20.3191V19.3975C2.86762 19.29 2.81849 19.0704 2.88146 18.9029C3.04666 18.4007 3.3421 17.9513 3.73767 17.6005C4.13325 17.2497 4.61477 17.0101 5.13315 16.9062C5.49385 16.8481 5.85833 16.8168 6.22366 16.8125C5.82277 15.7066 5.87346 14.6775 6.57078 13.7406C7.26811 12.8037 8.29108 12.4735 9.44458 12.5119C8.53683 9.92992 10.5197 8.14207 12.7146 8.19122C17.4607 8.29874 22.2099 8.23884 26.9575 8.2158C28.4013 8.2158 29.5071 8.75184 30.3074 9.94835C30.6146 10.4091 30.9525 10.85 31.2582 11.3123C31.3101 11.4011 31.3861 11.4733 31.4775 11.5206C31.5688 11.5679 31.6717 11.5884 31.7742 11.5795C33.2871 11.5703 34.7985 11.5626 36.3114 11.5795C36.6693 11.5795 36.7123 11.4352 36.7062 11.1403C36.6908 10.3938 36.6816 9.64577 36.7062 8.90083C36.7768 6.83191 38.62 5.44187 40.5891 6.00249C41.0498 6.13151 41.0375 5.98099 41.0422 5.63694C41.0606 4.49265 41.592 3.63098 42.5581 3.03503C42.8085 2.88144 43.085 2.76318 43.3507 2.62955L44.5641 2.57732ZM22.6845 27.1848C22.5309 27.1679 22.4633 27.1525 22.388 27.1525C19.5726 27.1525 16.7572 27.1525 13.9403 27.1418C13.5686 27.1418 13.5056 27.257 13.5087 27.6026C13.5241 29.3075 13.4964 31.0124 13.5256 32.7173C13.5363 33.3317 13.3536 33.7694 12.816 34.0996C12.1832 34.4928 11.5872 34.9521 10.9728 35.3806C10.7211 35.5407 10.5143 35.7621 10.3716 36.0241C10.2289 36.286 10.1552 36.5799 10.1572 36.8782C10.1572 41.8588 10.1572 46.8388 10.1572 51.8184C10.1572 52.6463 10.721 53.2268 11.4413 53.2284C12.1909 53.2284 12.7207 52.637 12.7253 51.7708C12.7253 50.6019 12.7253 49.4346 12.7253 48.2657C12.7253 47.4332 13.0018 47.037 13.5763 47.0231C14.1507 47.0093 14.4502 47.4056 14.4502 48.2319C14.4502 49.8979 14.4502 51.5644 14.4502 53.2314C14.4502 53.8827 14.4318 54.5355 14.4502 55.1852C14.4552 55.5142 14.5848 55.829 14.8128 56.0662C15.0409 56.3034 15.3504 56.4452 15.679 56.4631C16.0074 56.4729 16.3274 56.359 16.5758 56.1439C16.8242 55.9289 16.9826 55.6283 17.0199 55.3019C17.0414 55.1117 17.0491 54.9203 17.0429 54.729C17.0429 52.4865 17.0429 50.2456 17.0429 48.0046C17.0429 47.3257 17.4376 46.9556 18.0244 47.0339C18.5082 47.0999 18.7616 47.4471 18.7647 48.0937C18.7647 49.7832 18.7647 51.4728 18.7647 53.15C18.7647 54.8933 18.7555 56.6366 18.7647 58.3723C18.7724 59.151 19.3345 59.6978 20.058 59.6886C20.7492 59.6794 21.2867 59.1341 21.3236 58.3876C21.3344 58.1972 21.3236 58.0052 21.3236 57.8132C21.3236 54.557 21.3236 51.3008 21.3236 48.0445C21.3236 47.3795 21.6661 47.0032 22.216 47.0185C22.7659 47.0339 23.0423 47.381 23.0439 48.0369C23.0439 49.7602 23.0439 51.4835 23.0439 53.2084C23.0439 53.8596 23.0239 54.5109 23.0439 55.1621C23.047 55.4919 23.1745 55.8083 23.4009 56.0481C23.6273 56.2879 23.9359 56.4334 24.265 56.4554C24.9085 56.4999 25.4937 56.0023 25.6166 55.2988C25.6435 55.0901 25.6528 54.8794 25.6442 54.6691C25.6442 49.9005 25.6442 45.1309 25.6442 40.3602C25.6442 39.4647 26.1465 39.1176 26.9882 39.414C27.0957 39.4509 27.2032 39.4939 27.3092 39.5338C28.8636 40.119 30.4164 40.7073 31.9739 41.2833C32.7234 41.5613 33.3778 41.3908 33.7725 40.8348C34.0321 40.4723 34.0797 40.1805 33.602 39.9132C32.705 39.4017 31.8357 38.838 30.9648 38.2897C30.4594 37.9687 30.3366 37.5064 30.6008 37.061C30.865 36.6155 31.3472 36.5249 31.851 36.8137C32.2642 37.0502 32.6758 37.2975 33.069 37.5663C33.3132 37.7337 33.43 37.7107 33.5913 37.448C34.906 35.2977 36.2321 33.1509 37.5694 31.0078C37.7107 30.7805 37.7552 30.6576 37.468 30.4825C35.2654 29.1401 33.0711 27.7833 30.8849 26.4122C30.6161 26.2433 30.5147 26.3093 30.3673 26.5504C29.0484 28.7008 27.7208 30.8465 26.3846 32.9876C26.231 33.2364 26.2417 33.3547 26.5074 33.5068C27.1694 33.8892 27.813 34.3024 28.4581 34.7125C28.9987 35.0565 29.1447 35.5204 28.8697 35.9643C28.5948 36.4082 28.1018 36.5034 27.5688 36.1839C26.9452 35.8107 26.3201 35.439 25.7164 35.035C25.4277 34.8415 25.2357 34.7924 24.9485 35.0627C24.5199 35.459 23.9746 35.5619 23.3941 35.4666C22.1899 35.27 21.1439 34.1949 20.9365 32.9646C20.8198 32.258 20.9596 31.5991 21.2099 30.9448C21.7429 29.7068 22.2053 28.4581 22.6845 27.1848ZM36.6509 22.5908C36.6509 19.5404 36.6432 16.5729 36.6601 13.6054C36.6601 13.2107 36.4589 13.243 36.1993 13.243C34.5328 13.243 32.8663 13.243 31.2013 13.243C30.9821 13.2587 30.7627 13.2136 30.5676 13.1125C30.3724 13.0113 30.209 12.8582 30.0954 12.6701C29.7068 12.0787 29.2645 11.5227 28.8851 10.9268C28.4074 10.1741 27.7577 9.87309 26.8653 9.87617C22.1162 9.8992 17.3655 9.88691 12.6163 9.88845C12.3868 9.88144 12.1572 9.89378 11.9297 9.92532C11.6655 9.97719 11.4238 10.1098 11.2381 10.3049C11.0524 10.4999 10.9318 10.7478 10.893 11.0143C10.8591 11.2908 10.9156 11.5707 11.054 11.8124C11.1925 12.0541 11.4054 12.2445 11.6609 12.3552C11.894 12.4434 12.1435 12.4795 12.3921 12.4612C13.6208 12.4612 14.8496 12.4612 16.0691 12.4612C16.6835 12.4612 17.0767 12.8006 17.0844 13.3152C17.0921 13.8297 16.702 14.1676 16.0906 14.183C15.937 14.183 15.7835 14.183 15.6299 14.183C13.4457 14.183 11.2631 14.183 9.079 14.183C8.1175 14.183 7.52462 14.8357 7.65979 15.7097C7.7627 16.3717 8.30644 16.7849 9.13739 16.7849C11.1863 16.7849 13.2353 16.7849 15.2812 16.7849C15.5884 16.7849 15.8956 16.7741 16.2028 16.7849C16.7096 16.811 17.0567 17.1366 17.0798 17.5882C17.1044 18.0628 16.7588 18.4391 16.2335 18.4975C16.0616 18.5067 15.8893 18.5067 15.7174 18.4975H6.29588C6.06549 18.4975 5.8351 18.4975 5.60624 18.5067C5.28711 18.5185 4.98478 18.6527 4.76199 18.8815C4.5392 19.1103 4.41306 19.4161 4.40973 19.7354C4.3975 20.0636 4.51207 20.3839 4.72971 20.6299C4.94734 20.8758 5.25132 21.0286 5.57857 21.0563C5.76902 21.0748 5.96102 21.0671 6.15301 21.0671C9.37134 21.0671 12.5887 21.0671 15.8049 21.0671C16.0145 21.0565 16.2245 21.0725 16.4301 21.1147C16.6319 21.1523 16.8113 21.2665 16.9307 21.4334C17.0501 21.6004 17.1002 21.8071 17.0706 22.0102C17.0631 22.2139 16.978 22.407 16.8326 22.5498C16.6871 22.6926 16.4925 22.7744 16.2887 22.7782C16.1183 22.7935 15.9447 22.7858 15.7727 22.7858C13.5317 22.7858 11.2908 22.7782 9.05137 22.7858C8.20506 22.7858 7.65977 23.305 7.64441 24.0561C7.62905 24.8071 8.17126 25.334 9.00221 25.3908C9.1727 25.4016 9.34628 25.3908 9.5183 25.3908H23.5937C24.695 25.3908 25.0053 25.8439 24.6182 26.8807C24.0038 28.5072 23.3895 30.1323 22.7966 31.7619C22.5217 32.5084 22.7136 33.1612 23.2835 33.5436C23.6414 33.7832 23.8979 33.794 24.1682 33.3624C25.7389 30.784 27.3261 28.2149 28.9296 25.655C29.0755 25.42 29.1339 25.2802 28.8897 25.0406C28.2492 24.417 28.1417 23.6506 28.455 22.8227C28.5966 22.44 28.8123 22.0889 29.0898 21.7898C29.3673 21.4906 29.7011 21.2491 30.0721 21.0791C30.4431 20.9092 30.8439 20.8141 31.2517 20.7994C31.6595 20.7847 32.0662 20.8506 32.4485 20.9934C33.837 21.5217 35.204 22.0532 36.6509 22.5908Z" fill="black"/>
</g>
<defs>
<clipPath id="clip0_157_231">
<rect width="64" height="64" fill="white"/>
</clipPath>
</defs>
</svg>
