<svg width="64" height="64" viewBox="0 0 64 64" fill="#F04C28" xmlns="http://www.w3.org/2000/svg">
    <g clip-path="url(#clip0_157_263)">
        <path d="M43.3768 2.57579C43.5688 2.78621 43.8575 2.72938 44.091 2.8369C44.6805 3.10188 45.1753 3.54012 45.5095 4.09329C45.8437 4.64646 46.0014 5.2883 45.9618 5.93337C45.5758 11.3389 45.1841 16.7434 44.7868 22.1469C44.6731 23.7135 44.5917 25.2817 44.4381 26.8438C44.263 28.6347 42.9759 29.7698 41.1543 29.7836C39.0854 29.799 37.0164 29.8036 34.949 29.7744C34.476 29.7744 34.3899 29.9188 34.4022 30.3473C34.4299 31.4225 34.4114 32.4869 34.4114 33.5728C36.881 33.3255 39.2986 32.704 41.5813 31.7297C43.578 30.891 45.0264 31.1737 46.5931 32.6958C46.8649 32.96 49.1566 32.9723 49.4039 32.7081C49.5241 32.5562 49.5793 32.3629 49.5575 32.1705C49.5575 30.9064 49.5482 29.6423 49.5575 28.3782C49.5575 28.0987 49.4899 28.005 49.1919 27.9482C47.8633 27.6963 46.9602 26.5305 47.0815 25.2848C47.1308 24.6375 47.4259 24.0336 47.9063 23.5969C48.3867 23.1602 49.0159 22.9239 49.665 22.9364C51.6955 22.921 53.7255 22.921 55.755 22.9364C57.2618 22.9471 58.3753 24.0561 58.3661 25.4906C58.3569 26.9252 57.251 27.9666 55.7689 27.9835C55.3862 28.005 55.0026 28.005 54.6199 27.9835C54.1361 27.9328 53.9549 28.0587 53.9764 28.5979C54.0255 29.7652 53.9964 30.934 53.9902 32.1029C53.9748 35.2501 51.909 37.3129 48.768 37.3251C48.6727 37.3251 48.576 37.3251 48.4808 37.3251C47.6375 37.2361 46.8987 37.2944 46.4057 38.1776C46.1415 38.6537 45.5793 38.901 45.0648 39.1253C43.6483 39.7465 42.1896 40.2664 40.6996 40.6812C40.0484 40.8594 39.5922 40.6674 39.4463 40.1528C39.3004 39.6383 39.5646 39.2128 40.2143 39.0285C41.5936 38.6423 42.9448 38.162 44.2584 37.5909C45.5993 37.0041 46.1784 35.6955 45.6546 34.4483C45.1308 33.2011 43.7792 32.682 42.4291 33.2579C39.0345 34.7374 35.3648 35.4802 31.6621 35.4375C28.2284 35.4045 24.8368 34.6783 21.6907 33.3025C20.7691 32.897 19.8644 32.8647 19.0427 33.516C18.7236 33.7643 18.4742 34.091 18.3189 34.4644C18.1637 34.8377 18.1077 35.245 18.1566 35.6463C18.2055 36.0477 18.3575 36.4296 18.5978 36.7548C18.8382 37.0799 19.1587 37.3373 19.5281 37.5018C22.0721 38.6558 24.7694 39.4364 27.5365 39.8195C30.4398 40.2332 33.3865 40.2394 36.2915 39.838C36.4242 39.8188 36.5583 39.8111 36.6923 39.8149C37.1531 39.8318 37.4496 40.0684 37.5187 40.5307C37.5878 40.993 37.3943 41.3309 36.9488 41.4645C36.6209 41.5679 36.2789 41.6197 35.9351 41.6181C35.4405 41.6028 35.3822 41.85 35.4083 42.2479C35.4344 42.6457 35.4083 43.0512 35.4083 43.4536C35.4083 44.0557 35.1917 44.5487 34.6403 44.8267C34.5552 44.8625 34.4841 44.925 34.4378 45.0049C34.3916 45.0847 34.3726 45.1775 34.3838 45.2691C34.3239 46.7083 34.3193 46.7083 35.7661 46.7083C37.8166 46.7083 39.8656 46.7083 41.91 46.7083C44.965 46.7175 47.0692 48.8064 47.103 51.8552C47.1061 51.8936 47.1061 51.9321 47.103 51.9704C46.9878 52.7584 47.2474 53.2929 47.891 53.8566C49.7863 55.5108 49.7556 58.4429 47.9447 60.1878C47.5167 60.6006 47.0094 60.9224 46.4534 61.1335C45.8975 61.3446 45.3045 61.4407 44.7103 61.416C44.1161 61.3913 43.5331 61.2463 42.9966 60.9898C42.4601 60.7333 41.9812 60.3706 41.5889 59.9236C41.1945 59.4779 40.8948 58.9566 40.7082 58.3915C40.5216 57.8263 40.4518 57.2291 40.5033 56.6361C40.5547 56.0432 40.7262 55.4669 41.0074 54.9423C41.2886 54.4177 41.6735 53.9558 42.1388 53.5847C42.3201 53.4311 42.6441 53.382 42.6426 53.0902C42.6426 52.5387 42.7409 51.9766 42.5781 51.4375C42.5075 51.2071 42.2801 51.1656 42.0559 51.1656C39.5984 51.1656 37.1516 51.1656 34.7002 51.1656C34.4514 51.1656 34.3684 51.2378 34.3777 51.4897C34.394 51.9873 34.394 52.485 34.3777 52.9826C34.3692 53.094 34.3904 53.2056 34.4389 53.3062C34.4874 53.4068 34.5617 53.4928 34.6541 53.5555C36.2469 54.8365 36.7906 56.8302 36.0611 58.6534C35.7082 59.5302 35.0844 60.2714 34.2806 60.7688C33.4768 61.2661 32.5352 61.4936 31.593 61.4181C30.6509 61.338 29.76 60.9549 29.0539 60.3261C28.3478 59.6972 27.8645 58.8565 27.6763 57.9299C27.3292 56.2327 27.8483 54.7828 29.1646 53.66C29.4626 53.4065 29.5932 53.1777 29.5671 52.8029C29.5432 52.4014 29.5432 51.9987 29.5671 51.5972C29.5824 51.2992 29.5287 51.1625 29.1754 51.1656C26.7814 51.181 24.3873 51.181 21.9933 51.1656C21.4665 51.1656 21.256 51.3929 21.2913 51.8967C21.299 51.9728 21.299 52.0495 21.2913 52.1256C21.2053 52.8275 21.4127 53.3083 22.004 53.8151C23.9286 55.454 23.9301 58.423 22.1116 60.1893C21.6807 60.6063 21.169 60.9307 20.6082 61.1427C20.0473 61.3547 19.449 61.4499 18.85 61.4223C18.2511 61.3946 17.6641 61.2448 17.1251 60.9821C16.5861 60.7194 16.1066 60.3492 15.7159 59.8944C15.3222 59.4421 15.026 58.9135 14.846 58.3415C14.6659 57.7696 14.6058 57.1666 14.6694 56.5704C14.733 55.9741 14.9188 55.3974 15.2155 54.8763C15.5121 54.3552 15.913 53.9008 16.3932 53.5417C16.5505 53.4439 16.6766 53.3031 16.7566 53.136C16.8366 52.969 16.8672 52.7825 16.8448 52.5986C16.7726 51.1533 16.9615 49.771 17.9199 48.5975C18.3627 48.0294 18.9261 47.5666 19.5694 47.2425C20.2127 46.9185 20.9199 46.7412 21.64 46.7236C22.2544 46.699 22.6507 47.0492 22.6583 47.5622C22.666 48.0753 22.3036 48.3978 21.7245 48.4424C19.6387 48.6067 18.2855 50.2855 18.5666 52.3544C18.6388 52.8889 19.0489 52.5341 19.2885 52.6248C19.5957 52.7369 19.5634 52.4881 19.568 52.2961C19.5772 51.8767 19.5373 51.4574 19.6632 51.0427C19.788 50.6078 20.0442 50.222 20.3967 49.9382C20.7492 49.6545 21.1808 49.4866 21.6323 49.4576C21.8412 49.4453 22.0532 49.4484 22.2636 49.4484H41.6857C43.5703 49.4484 44.3644 50.241 44.3859 52.1271C44.3859 52.3391 44.2124 52.7015 44.7223 52.637C45.0694 52.594 45.4027 52.7307 45.3981 52.1225C45.3827 49.7648 44.1064 48.4362 41.7579 48.4362H26.0712C25.9376 48.4362 25.804 48.4362 25.6688 48.4362C25.0913 48.4147 24.7273 48.0829 24.7242 47.5792C24.7211 47.0754 25.079 46.7221 25.6581 46.716C26.787 46.7037 27.919 46.6868 29.0479 46.716C29.4903 46.7298 29.6254 46.5992 29.5671 46.1784C29.5409 45.9497 29.5409 45.7189 29.5671 45.4902C29.6001 45.3354 29.5779 45.1739 29.5044 45.0337C29.4309 44.8934 29.3107 44.7833 29.1646 44.7223C28.7038 44.4781 28.5503 44.0096 28.5503 43.4935C28.5503 43.0327 28.5318 42.5719 28.5503 42.1112C28.5672 41.7886 28.4965 41.6504 28.1309 41.615C25.0523 41.2541 22.042 40.4501 19.1933 39.2282C18.3254 38.8596 17.5682 38.3681 17.0706 37.554C16.917 37.3052 16.7296 37.3052 16.4961 37.2975C15.5745 37.2714 14.653 37.3866 13.7498 37.1654C11.6579 36.6555 10.1004 34.8369 10.0113 32.6912C9.95297 31.2965 9.96833 29.8957 9.9929 28.498C9.9929 28.0511 9.86234 27.9343 9.44302 27.9697C9.003 27.9919 8.56213 27.9919 8.12211 27.9697C7.46395 27.9738 6.83077 27.718 6.36023 27.2578C5.88968 26.7976 5.6198 26.1702 5.60929 25.5121C5.59803 25.1847 5.65203 24.8584 5.76812 24.552C5.88421 24.2457 6.06009 23.9655 6.28551 23.7278C6.51093 23.4901 6.78139 23.2996 7.08114 23.1674C7.38089 23.0352 7.70395 22.964 8.03149 22.9579C10.1951 22.9067 12.3593 22.9067 14.524 22.9579C15.8495 22.9901 16.8448 24.0653 16.917 25.3739C16.9378 25.9822 16.7385 26.5777 16.3556 27.0509C15.9727 27.524 15.432 27.8432 14.8327 27.9497C14.5255 28.0096 14.4303 28.1033 14.4333 28.4105C14.4497 29.6546 14.4497 30.8992 14.4333 32.1444C14.4333 32.6912 14.676 32.9124 15.2013 32.8893C15.4304 32.8739 15.6603 32.8739 15.8894 32.8893C16.2682 32.9398 16.6535 32.9032 17.016 32.7824C17.3785 32.6615 17.7087 32.4596 17.9814 32.192C19.1518 31.1337 20.6079 30.9909 22.0655 31.593C23.8902 32.3471 25.7518 32.9753 27.6947 33.3132C28.2216 33.4069 28.7561 33.4561 29.2829 33.5498C29.5087 33.5912 29.5901 33.5498 29.5901 33.3086C29.5809 32.2335 29.5732 31.1583 29.5901 30.0908C29.5901 29.6945 29.3474 29.7836 29.1293 29.7836H23.0961C20.9196 29.7836 19.6878 28.7085 19.5096 26.5336C19.2393 23.2512 19.0228 19.9643 18.7908 16.6789C18.7448 16.0384 19.0857 15.6037 19.6156 15.5838C20.1194 15.5638 20.4635 15.937 20.5096 16.5637C20.742 19.7534 20.9714 22.943 21.1977 26.1327C21.3036 27.6333 21.7383 28.0572 23.2282 28.0572H40.824C42.2064 28.0572 42.6825 27.621 42.7808 26.2386C43.2171 20.1276 43.6517 14.0161 44.0849 7.904C44.1309 7.25429 44.1878 6.60612 44.2293 5.95642C44.2922 4.95498 43.704 4.30067 42.6933 4.30067C35.5696 4.29452 28.4448 4.29452 21.319 4.30067C20.2807 4.30067 19.6955 4.95498 19.7692 5.99021C19.9208 8.1303 20.0744 10.2694 20.23 12.4074C20.2776 13.0587 19.9904 13.4826 19.462 13.544C18.9337 13.6055 18.5712 13.2537 18.519 12.5733C18.3469 10.34 18.1734 8.10675 18.0305 5.8704C17.943 4.50187 18.7785 3.28693 20.0657 2.777C20.21 2.71863 20.422 2.777 20.5019 2.57272L43.3768 2.57579ZM29.3336 56.9838C29.3216 57.6893 29.5897 58.3708 30.0791 58.8792C30.5684 59.3875 31.2392 59.6813 31.9447 59.6963C32.2992 59.703 32.6514 59.639 32.9808 59.5079C33.3102 59.3768 33.6101 59.1813 33.863 58.9328C34.1159 58.6844 34.3167 58.3879 34.4536 58.0609C34.5905 57.7339 34.6607 57.3828 34.6603 57.0283C34.6636 56.322 34.3876 55.643 33.8925 55.1392C33.3973 54.6355 32.7232 54.3478 32.0169 54.3389C31.3114 54.3372 30.6337 54.6141 30.1312 55.1094C29.6287 55.6047 29.3421 56.2783 29.3336 56.9838ZM44.8943 59.6963C45.6009 59.6981 46.2802 59.4234 46.7868 58.9308C47.2934 58.4382 47.5872 57.767 47.6053 57.0606C47.6073 56.3441 47.3261 55.6558 46.8229 55.1457C46.3198 54.6356 45.6354 54.345 44.9189 54.3373C44.212 54.3449 43.536 54.6284 43.0353 55.1275C42.5345 55.6265 42.2486 56.3015 42.2386 57.0083C42.2422 57.7146 42.5221 58.3914 43.0184 58.8938C43.5148 59.3962 44.1882 59.6842 44.8943 59.6963ZM19.0796 59.6963C19.786 59.6915 20.4625 59.4099 20.9636 58.9119C21.4647 58.414 21.7506 57.7393 21.7598 57.0329C21.756 56.3262 21.4761 55.649 20.98 55.1457C20.4839 54.6424 19.8107 54.3529 19.1042 54.3389C18.3876 54.3389 17.7001 54.6226 17.1921 55.128C16.6841 55.6334 16.3969 56.3194 16.3932 57.036C16.4048 57.7424 16.6924 58.4163 17.1944 58.9134C17.6964 59.4106 18.3731 59.6915 19.0796 59.6963ZM11.2585 26.2663C12.2707 26.2663 13.2829 26.2663 14.2951 26.2663C14.8204 26.2663 15.1752 25.9453 15.1921 25.4983C15.209 25.0514 14.8419 24.6704 14.2905 24.6674C12.2866 24.6551 10.2817 24.6551 8.2757 24.6674C7.69972 24.6674 7.36336 24.9899 7.36336 25.4737C7.36336 25.9576 7.69666 26.2602 8.28493 26.2648C9.27254 26.2724 10.2586 26.2663 11.2585 26.2663ZM52.7476 26.2663C53.7399 26.2663 54.7336 26.2663 55.7258 26.2663C56.3034 26.2663 56.6474 25.9591 56.6351 25.4707C56.6228 24.9822 56.2941 24.6735 55.7135 24.6704C53.7281 24.6612 51.7416 24.6612 49.7541 24.6704C49.1612 24.6704 48.7818 25.0268 48.8048 25.5091C48.8279 25.9914 49.1888 26.2648 49.7648 26.2678C50.7601 26.2709 51.7539 26.2663 52.7476 26.2663ZM12.7161 30.3857C12.7161 29.736 12.6885 29.0848 12.7254 28.4366C12.7484 28.0234 12.5718 27.9758 12.2277 27.9758C11.8836 27.9758 11.7116 28.0081 11.7208 28.4274C11.75 29.7268 11.7208 31.0277 11.7347 32.3287C11.73 32.6729 11.7782 33.0159 11.8775 33.3455C12.4197 35.035 14.5854 36.1532 16.2611 35.5742C16.6205 35.4497 16.3871 35.0719 16.4654 34.8185C16.5437 34.565 16.3118 34.6111 16.1736 34.6096C15.7911 34.6096 15.4056 34.6188 15.0262 34.6096C13.6531 34.5635 12.7438 33.6481 12.7223 32.278C12.7069 31.6483 12.7161 31.017 12.7161 30.3857ZM52.2546 30.504H52.2669C52.2669 29.8159 52.2423 29.1216 52.2776 28.4397C52.2991 28.028 52.124 27.9789 51.7784 27.9789C51.4328 27.9789 51.2593 28.005 51.2731 28.4274C51.3054 29.4411 51.2286 30.4579 51.2946 31.467C51.4405 33.731 50.3976 34.8046 48.1183 34.605C47.6053 34.5589 47.4578 34.7017 47.5423 35.2193C47.5899 35.5265 47.6744 35.6064 47.9585 35.5926C48.3594 35.5726 48.7618 35.5926 49.1627 35.5818C49.964 35.565 50.7289 35.2439 51.302 34.6836C51.8751 34.1233 52.2135 33.3659 52.2484 32.5652C52.2853 31.8817 52.2546 31.1921 52.2546 30.504ZM31.3119 31.7681V32.8002C31.3119 33.7326 31.3119 33.7126 32.2565 33.7218C32.6236 33.7218 32.7035 33.6051 32.6942 33.261C32.6712 32.4224 32.6942 31.5807 32.6942 30.7405C32.6942 29.7468 32.6943 29.7606 31.6928 29.7775C31.3856 29.7775 31.3011 29.8666 31.3134 30.1645C31.3288 30.699 31.3119 31.2336 31.3119 31.7681ZM32.0445 41.8393V41.8623C31.7773 41.8623 31.51 41.8623 31.2428 41.8623C30.2659 41.8424 30.2797 41.8424 30.2859 42.8546C30.2859 43.1618 30.355 43.2908 30.6945 43.2785C31.3626 43.2524 32.0323 43.2785 32.7004 43.2785C33.7633 43.2785 33.7633 43.2785 33.7065 42.2033C33.7042 42.1845 33.7042 42.1654 33.7065 42.1465C33.7387 41.8792 33.6005 41.8316 33.3639 41.8393C32.9247 41.8501 32.4838 41.8393 32.0445 41.8393ZM32.6866 45.8328C32.6175 45.5901 32.8555 45.1431 32.576 45.0341C32.1918 44.9151 31.7802 44.9183 31.3979 45.0433C31.189 45.1047 31.3211 45.4933 31.318 45.7314C31.3058 46.7666 31.318 46.759 32.3563 46.7098C32.5898 46.6975 32.7188 46.6622 32.6897 46.3949C32.6786 46.2113 32.6765 46.0273 32.6835 45.8435L32.6866 45.8328ZM31.9739 52.6079C32.6912 52.6079 32.6497 52.5986 32.6989 51.6725C32.7434 50.8446 32.1597 51.2009 31.8249 51.1717C30.8696 51.0903 31.424 51.8337 31.3288 52.1947C31.1476 52.8644 31.6821 52.5848 31.9739 52.6109V52.6079Z"
              fill="#F04C28"/>
        <path d="M31.9539 57.867C31.7323 57.8585 31.523 57.7627 31.3719 57.6003C31.2207 57.438 31.1401 57.2224 31.1476 57.0007C31.1544 56.7695 31.2527 56.5506 31.4209 56.3919C31.5891 56.2332 31.8134 56.1477 32.0445 56.1544C32.2655 56.1711 32.4717 56.2715 32.6213 56.435C32.7708 56.5985 32.8524 56.8129 32.8494 57.0345C32.8493 57.1492 32.8255 57.2626 32.7797 57.3677C32.7338 57.4729 32.6667 57.5674 32.5827 57.6455C32.4987 57.7236 32.3996 57.7836 32.2914 57.8217C32.1832 57.8598 32.0683 57.8752 31.9539 57.867Z"
              fill="#F04C28"/>
        <path d="M44.8959 57.8669C44.6741 57.8625 44.4629 57.7712 44.3078 57.6126C44.1527 57.4541 44.066 57.2409 44.0664 57.0191C44.067 56.9042 44.0904 56.7906 44.1351 56.6847C44.1798 56.5789 44.245 56.483 44.3269 56.4025C44.4089 56.3219 44.506 56.2584 44.6126 56.2156C44.7192 56.1727 44.8332 56.1514 44.9481 56.1528C45.1697 56.1665 45.3782 56.2624 45.5328 56.4218C45.6873 56.5812 45.7768 56.7926 45.7836 57.0145C45.7831 57.1293 45.7595 57.2428 45.7142 57.3483C45.669 57.4538 45.603 57.5491 45.5202 57.6286C45.4374 57.7082 45.3395 57.7702 45.2322 57.8112C45.125 57.8521 45.0106 57.8711 44.8959 57.8669Z"
              fill="#F04C28"/>
        <path d="M19.0781 57.8685C18.856 57.8687 18.6425 57.7832 18.4819 57.6298C18.3214 57.4765 18.2263 57.267 18.2164 57.0452C18.2147 56.8134 18.3037 56.5901 18.4644 56.4231C18.6251 56.2561 18.8448 56.1585 19.0765 56.1513C19.3085 56.1565 19.5288 56.2536 19.6893 56.4212C19.8497 56.5888 19.937 56.8133 19.932 57.0452C19.9252 57.2667 19.8321 57.4768 19.6726 57.6306C19.513 57.7844 19.2997 57.8698 19.0781 57.8685Z"
              fill="#F04C28"/>
    </g>
    <defs>
        <clipPath id="clip0_157_263">
            <rect width="64" height="64" fill="white"/>
        </clipPath>
    </defs>
</svg>
