<svg width="64" height="64" viewBox="0 0 64 64" fill="none" xmlns="http://www.w3.org/2000/svg">
<g clip-path="url(#clip0_157_215)">
<path d="M31.1982 61.4242C30.974 61.1677 30.6238 61.1677 30.3474 61.011C29.5593 60.5951 28.9639 59.8889 28.687 59.042C28.5825 58.7194 28.4397 58.6365 28.1233 58.6457C27.3185 58.6687 26.5136 58.6595 25.7103 58.6457C24.6459 58.6349 24.0791 58.0666 24.0714 57.0145C24.0714 56.2465 24.0592 55.4785 24.0714 54.7106C24.0714 54.4141 24.0361 54.282 23.6828 54.279C22.5309 54.2667 22.1116 53.8888 21.9564 52.7353C21.7619 51.2752 21.5878 49.8119 21.4342 48.3456C21.3974 48.0031 21.2914 47.8848 20.9458 47.8971C20.0088 47.9186 19.0704 47.9186 18.1304 47.8971C17.794 47.8971 17.7172 48.0061 17.7218 48.321C17.7387 49.3962 17.7218 50.4713 17.731 51.5388C17.7387 52.4911 17.3424 53.1823 16.49 53.6293C14.461 54.6952 12.4443 55.7796 10.4138 56.8455C8.80564 57.6888 7.2927 56.7764 7.28195 54.9732C7.28195 54.3803 7.27274 53.7859 7.28195 53.1931C7.29117 52.6002 7.65675 52.2484 8.1544 52.2592C8.62594 52.2699 8.98228 52.634 8.99917 53.17C9.0176 53.7629 8.99914 54.3573 9.00682 54.9502C9.0145 55.4463 9.16042 55.5507 9.59049 55.328C11.6179 54.2605 13.6393 53.1777 15.6667 52.1102C15.7722 52.067 15.8615 51.9916 15.9219 51.8949C15.9822 51.7982 16.0106 51.6849 16.0031 51.5711C15.9939 50.479 15.9908 49.387 16.0031 48.2964C16.0031 47.9969 15.9155 47.8971 15.6129 47.8986C13.5261 47.9089 11.4382 47.9089 9.34934 47.8986C9.07287 47.8986 8.97766 47.9724 8.99456 48.2534C9.01607 48.6166 9.01607 48.9808 8.99456 49.344C8.96538 49.8693 8.59365 50.2379 8.12519 50.2333C8.00963 50.2322 7.89549 50.2077 7.78965 50.1613C7.68381 50.1149 7.58847 50.0476 7.50938 49.9633C7.43029 49.879 7.36912 49.7796 7.3295 49.6711C7.28988 49.5625 7.27265 49.4471 7.27888 49.3317C7.27888 45.3858 7.22668 41.44 7.30501 37.4956C7.35416 34.949 9.65502 32.7895 12.2201 32.6881C14.9141 32.5806 17.2703 34.479 17.6389 37.0594C17.6696 37.2683 17.7019 37.4772 17.7157 37.6861C17.7664 38.431 17.7633 38.431 18.5374 38.431C18.9782 38.431 19.4191 38.4157 19.8599 38.431C20.1671 38.4464 20.2362 38.3727 20.1978 38.0516C19.9305 35.866 19.6402 33.6834 19.4497 31.4916C18.8354 24.4078 20.3038 17.7663 23.8011 11.578C25.5716 8.46379 27.8282 5.6524 30.4856 3.25007C31.4655 2.35615 32.5268 2.34693 33.5006 3.24086C38.5524 7.87789 41.9484 13.5087 43.6456 20.1594C43.8145 20.8244 43.6287 21.2867 43.1341 21.4296C42.5858 21.5832 42.168 21.2975 41.9914 20.6125C40.6419 15.2246 37.9236 10.2767 34.0997 6.24825C33.5606 5.67687 32.9707 5.15619 32.427 4.58942C32.1198 4.27302 31.9002 4.28223 31.5715 4.58942C28.2174 7.66234 25.5483 11.4074 23.7382 15.5807C21.2514 21.3052 20.551 27.2616 21.3835 33.4377C21.9226 37.4388 22.3558 41.4553 22.8027 45.4688C22.8673 46.0371 23.0209 46.2367 23.6199 46.2122C25.0744 46.1615 26.5382 46.1799 27.9866 46.2122C28.4013 46.2198 28.4888 46.0924 28.4873 45.6991C28.4719 42.5955 28.4719 39.4924 28.4873 36.3898C28.4965 34.3239 29.9618 32.7557 31.8833 32.7035C33.88 32.6528 35.4452 34.1304 35.522 36.1931C35.5665 37.3789 35.5419 38.5677 35.5296 39.7566C35.522 40.4032 35.2025 40.7534 34.6695 40.758C34.1365 40.7626 33.8124 40.4017 33.8094 39.7105C33.8094 38.5616 33.8247 37.4065 33.8002 36.2623C33.7802 35.3223 33.1858 34.6157 32.3379 34.4483C31.9386 34.3786 31.5274 34.4452 31.1706 34.6374C30.8137 34.8296 30.5319 35.1363 30.3704 35.5081C30.249 35.8109 30.194 36.1361 30.2091 36.4619C30.2091 43.5273 30.2091 50.5952 30.2091 57.6657C30.2091 58.7624 30.7759 59.5181 31.702 59.6886C32.1024 59.7525 32.5127 59.6799 32.8668 59.4824C33.2209 59.2848 33.4983 58.9739 33.6542 58.5996C33.7793 58.2557 33.8316 57.8896 33.8078 57.5244C33.8078 53.0804 33.8078 48.6369 33.8078 44.1939C33.8078 44.0204 33.8078 43.8483 33.8078 43.6763C33.8447 43.1556 34.1534 42.8285 34.6188 42.8085C34.7344 42.7995 34.8507 42.8147 34.96 42.8532C35.0694 42.8917 35.1696 42.9525 35.2541 43.0318C35.3387 43.1112 35.4058 43.2073 35.4511 43.314C35.4964 43.4208 35.519 43.5358 35.5173 43.6517C35.5511 44.3014 35.5511 44.9542 35.5173 45.6039C35.4974 46.0248 35.5803 46.1968 36.0611 46.1845C37.574 46.1492 39.0884 46.1569 40.6014 46.1845C40.993 46.1845 41.1266 46.0709 41.1697 45.693C41.4768 43.0512 41.7948 40.4109 42.1035 37.7675C42.3554 35.6172 42.6196 33.4668 42.8346 31.3165C43.0384 29.1403 43.0116 26.9486 42.7547 24.778C42.6795 24.0991 42.9191 23.6751 43.4459 23.603C44.0035 23.5246 44.3675 23.8303 44.4489 24.5076C44.8191 27.4705 44.7377 30.4303 44.3629 33.387C44.1525 35.0565 43.962 36.7277 43.7577 38.4433C44.5165 38.4433 45.2415 38.428 45.968 38.4433C46.4287 38.4571 46.2583 38.1361 46.2644 37.9318C46.3427 35.4743 47.8388 33.5129 50.1212 32.8801C53.3805 31.9754 56.6812 34.3945 56.7027 37.7782C56.7396 43.5626 56.7227 49.347 56.7104 55.1345C56.7104 56.715 55.1668 57.6627 53.7552 56.9362C51.6049 55.8287 49.4653 54.6752 47.3288 53.5264C46.6054 53.1378 46.2798 52.4865 46.2721 51.6832C46.2613 50.5911 46.2552 49.4991 46.2721 48.4086C46.2721 48.0307 46.2122 47.8664 45.7821 47.8817C44.8836 47.9171 43.982 47.9094 43.0819 47.8817C42.7179 47.8725 42.5981 47.9785 42.5582 48.3517C42.4046 49.8754 42.208 51.3945 42.0129 52.912C41.8946 53.8335 41.3693 54.3128 40.4278 54.282C39.9578 54.2667 39.904 54.4356 39.9194 54.8334C39.9486 55.56 39.9317 56.288 39.9271 57.016C39.9194 58.0697 39.3511 58.638 38.2882 58.6487C37.4649 58.6487 36.6417 58.6487 35.8169 58.6487C35.6633 58.6487 35.4574 58.5812 35.3883 58.8208C34.9767 60.2584 33.9522 61.0325 32.5699 61.4181L31.1982 61.4242ZM9.01143 41.6995C9.01143 43.0588 9.02065 44.4182 9.01143 45.7775C9.01143 46.0847 9.08211 46.1983 9.41695 46.1953C11.4843 46.1799 13.5517 46.1845 15.6191 46.1953C15.9048 46.1953 16.0215 46.1292 16.02 45.8143C16.0077 43.1541 16.0476 40.4923 15.9969 37.8274C15.9903 37.3664 15.8917 36.9113 15.7069 36.4889C15.5222 36.0665 15.2549 35.6851 14.9209 35.3673C14.5869 35.0495 14.1928 34.8015 13.7617 34.6379C13.3307 34.4743 12.8713 34.3983 12.4105 34.4145C10.5152 34.4529 9.03141 35.9965 9.01912 37.9641C9.00376 39.2113 9.01143 40.4554 9.01143 41.6995ZM54.9917 41.7548C54.9917 41.4108 54.9917 41.0667 54.9917 40.7211C54.9825 39.6106 55.0685 38.4894 54.9394 37.3927C54.7244 35.568 53.0809 34.3085 51.2532 34.4222C49.4484 34.5359 48.0277 36.058 48.0093 37.9549C47.9862 40.5215 48.0092 43.088 47.9908 45.6546C47.9908 46.1154 48.1444 46.1799 48.5438 46.1753C50.5405 46.1569 52.528 46.1523 54.5201 46.1753C54.9456 46.1753 55.0147 46.0432 55.007 45.6592C54.9778 44.3613 54.9917 43.0573 54.9917 41.7548ZM54.9917 51.6571C54.9917 50.5282 54.9825 49.4008 54.9917 48.278C54.9917 47.9708 54.9041 47.8909 54.6031 47.8925C52.5367 47.9048 50.4714 47.9048 48.407 47.8925C48.086 47.8925 47.9754 47.9754 47.9816 48.3087C48 49.3839 47.9969 50.4591 47.9816 51.5219C47.9691 51.6533 47.9994 51.7851 48.0677 51.898C48.136 52.0109 48.2388 52.0987 48.361 52.1486C50.3577 53.1946 52.336 54.2605 54.3251 55.3127C54.8427 55.5876 54.9809 55.4939 54.9825 54.8765C54.9963 53.7998 54.9932 52.7277 54.9932 51.6571H54.9917ZM25.8485 47.914C25.1021 47.914 24.3541 47.9309 23.6091 47.914C23.2451 47.9017 23.0976 47.9785 23.1483 48.3855C23.3219 49.6727 23.4693 50.9659 23.6091 52.2577C23.6352 52.4911 23.7059 52.5894 23.9578 52.5879C25.3545 52.5766 26.7512 52.5766 28.1479 52.5879C28.3951 52.5879 28.475 52.5188 28.4735 52.2669C28.4622 50.946 28.4622 49.6255 28.4735 48.3057C28.4735 47.9985 28.3752 47.9094 28.0772 47.9155C27.343 47.9247 26.5966 47.914 25.8501 47.914H25.8485ZM38.2053 47.8925C37.4373 47.8925 36.6693 47.9048 35.909 47.8925C35.6018 47.8848 35.5158 47.9893 35.5189 48.2857C35.5312 49.6056 35.5312 50.925 35.5189 52.2438C35.5189 52.5341 35.6202 52.5879 35.8813 52.5863C37.2596 52.5751 38.6369 52.5751 40.0131 52.5863C40.2404 52.5863 40.354 52.5357 40.3817 52.2792C40.5261 50.9695 40.6797 49.6604 40.8425 48.3517C40.887 48.0108 40.821 47.8725 40.437 47.891C39.7013 47.914 38.9517 47.8925 38.2068 47.8925H38.2053ZM17.7372 43.1403C17.7372 44.0388 17.7479 44.9389 17.7372 45.8374C17.7372 46.1123 17.814 46.1983 18.092 46.1937C18.9905 46.1784 19.8891 46.1799 20.7891 46.1937C21.0963 46.1937 21.1747 46.1231 21.1332 45.8021C20.9105 44.0388 20.7077 42.2694 20.5188 40.5061C20.4881 40.2281 20.3775 40.159 20.1194 40.1651C19.4697 40.1789 18.817 40.1943 18.1688 40.1651C17.7894 40.1451 17.731 40.2911 17.7403 40.6259C17.7479 41.4569 17.7372 42.2985 17.7372 43.1403ZM46.2752 43.2032C46.2752 42.3247 46.2598 41.4461 46.2828 40.5691C46.2921 40.2373 46.1845 40.1498 45.8666 40.1605C45.2169 40.1835 44.5672 40.1743 43.919 40.1605C43.6778 40.1605 43.5365 40.1912 43.5043 40.4846C43.3092 42.2663 43.1049 44.0495 42.8792 45.8282C42.8377 46.1507 42.9713 46.1691 43.2155 46.1661C44.1125 46.1661 45.011 46.1492 45.908 46.1661C46.2152 46.1738 46.2859 46.0586 46.2813 45.7744C46.2613 44.922 46.2705 44.0634 46.2705 43.2032H46.2752ZM28.4827 55.5676C28.4827 54.2989 28.4827 54.2989 27.2278 54.2989H27.1126C25.7994 54.2989 25.7994 54.2989 25.7994 55.6199C25.7994 56.9408 25.7994 56.9285 27.1341 56.9285C28.4689 56.9285 28.4781 56.9285 28.4781 55.5676H28.4827ZM36.8905 54.282C36.4558 54.3005 35.8906 54.1622 35.6218 54.3834C35.353 54.6046 35.5389 55.2021 35.5343 55.6337C35.5235 56.9285 35.5342 56.9285 36.8874 56.9285C38.2145 56.9285 38.2145 56.9285 38.2145 55.6106C38.2145 54.2928 38.2099 54.3051 36.8859 54.282H36.8905Z" fill="black"/>
<path d="M24.5399 23.136C24.5399 21.1628 25.321 19.2697 26.7126 17.8707C28.1041 16.4716 29.9929 15.6803 31.9662 15.6698C32.9478 15.6667 33.9205 15.8572 34.8285 16.2304C35.7365 16.6035 36.562 17.152 37.2578 17.8444C37.9537 18.5369 38.5062 19.3597 38.8839 20.2658C39.2615 21.1719 39.4567 22.1436 39.4586 23.1253C39.4473 25.099 38.6578 26.9885 37.2616 28.3835C35.8654 29.7786 33.9752 30.5665 32.0015 30.5762C30.0284 30.5693 28.1377 29.7839 26.7405 28.3907C25.3433 26.9975 24.5524 25.1091 24.5399 23.136ZM31.98 17.3962C30.4622 17.4035 29.009 18.0113 27.9381 19.0869C26.8672 20.1624 26.2656 21.6182 26.2648 23.136C26.2781 24.655 26.8902 26.1074 27.968 27.1778C29.0459 28.2481 30.5025 28.8501 32.0215 28.8528C33.5399 28.8395 34.9919 28.2279 36.0621 27.1507C37.1324 26.0735 37.7347 24.6177 37.7383 23.0992C37.7281 21.5802 37.1165 20.1271 36.0372 19.0582C34.9579 17.9893 33.499 17.3917 31.98 17.3962Z" fill="black"/>
</g>
<defs>
<clipPath id="clip0_157_215">
<rect width="64" height="64" fill="white"/>
</clipPath>
</defs>
</svg>
