<svg width="64" height="64" viewBox="0 0 64 64" fill="#F04C28" xmlns="http://www.w3.org/2000/svg">
    <g clip-path="url(#clip0_157_249)">
        <path d="M61.4258 24.6474C61.1431 25.1205 61.1969 25.6657 61.1093 26.1757C59.6763 34.5758 52.7599 41.2956 44.2753 42.4844C39.1555 43.2012 34.4453 42.126 30.1446 39.2589C29.8666 39.0731 29.6946 39.0347 29.4473 39.3127C29.0157 39.798 28.5457 40.2496 28.0649 40.695C27.8591 40.887 27.876 40.9899 28.0649 41.1927C29.0817 42.3062 29.0494 43.2048 27.982 44.2769L26.1957 46.0632C25.6796 46.5793 25.0514 46.7943 24.3617 46.5808C23.9885 46.4641 23.8641 46.6008 23.6936 46.8619C21.8213 49.7341 19.6341 52.3283 16.8924 54.4172C16.0277 55.0777 15.1307 55.6966 14.2367 56.3202C13.9879 56.4938 13.8328 56.6075 13.9465 56.9838C14.1523 57.6719 13.9464 58.3062 13.435 58.8269C12.7592 59.5043 12.0726 60.1724 11.4075 60.859C11.1234 61.1539 10.7532 61.2645 10.4045 61.4257H9.48298C8.65971 60.925 8.0484 60.1878 7.37719 59.5196C6.94252 59.088 6.9164 58.5627 7.29117 58.2064C7.66594 57.8501 8.15592 57.8885 8.60749 58.3262C8.99302 58.6979 9.37545 59.0727 9.74408 59.4644C9.94836 59.684 10.0958 59.7531 10.34 59.4935C10.9052 58.896 11.492 58.317 12.0879 57.7487C12.3322 57.5137 12.2846 57.3601 12.0649 57.1343C10.3242 55.4079 8.59109 53.6743 6.86571 51.9336C6.63532 51.7016 6.48173 51.7047 6.25902 51.9336C5.68867 52.5275 5.10652 53.1096 4.51262 53.68C4.28837 53.8965 4.31143 54.0363 4.52492 54.236C4.89048 54.5739 5.24066 54.9287 5.58164 55.2912C5.99327 55.7258 6.01174 56.1974 5.65386 56.5645C5.29598 56.9316 4.8014 56.9177 4.38209 56.5184C3.9382 56.096 3.49582 55.669 3.08572 55.2144C2.75658 54.8704 2.57493 54.4114 2.57952 53.9353C2.58411 53.4592 2.77461 53.0038 3.11032 52.6662C3.80918 51.9305 4.53722 51.224 5.26065 50.5159C5.49014 50.2809 5.78067 50.1147 6.09953 50.036C6.4184 49.9573 6.75294 49.9693 7.06539 50.0705C7.38026 50.1611 7.50158 50.0705 7.65364 49.8416C8.49519 48.5387 9.41861 47.2905 10.4183 46.1046C10.6749 45.7974 10.9851 45.6608 11.3845 45.7713C11.5334 45.8116 11.6682 45.8926 11.7737 46.0052C11.8793 46.1178 11.9514 46.2575 11.982 46.4088C12.0818 46.7897 11.8683 47.0708 11.6425 47.3303C10.6909 48.4798 9.80378 49.6812 8.98533 50.9291C8.77798 51.2363 8.76414 51.4144 9.04829 51.6894C10.1501 52.7543 11.2339 53.8371 12.2999 54.9379C12.5564 55.2021 12.7254 55.2451 13.0571 55.0377C16.8448 52.6508 20.047 49.4423 22.4264 45.65C22.5954 45.3827 22.6246 45.223 22.3711 44.9772C21.2315 43.8693 20.1051 42.746 18.992 41.6074C18.7663 41.377 18.6111 41.3985 18.3669 41.5613C17.0858 42.3986 15.8522 43.3062 14.6714 44.2799C14.1784 44.6931 13.7498 44.7023 13.3874 44.3552C12.9941 43.9835 13.0387 43.4152 13.5087 43.0112C14.6597 42.0307 15.8753 41.1286 17.1474 40.311C17.4131 40.139 17.5314 40.0038 17.4238 39.6398C17.2242 38.9502 17.4238 38.3204 17.9476 37.7967C18.6004 37.15 19.244 36.4927 19.8998 35.8476C20.7676 34.9936 21.8366 34.9613 22.6922 35.8199C23.0147 36.144 23.1698 36.101 23.4401 35.7984C23.8371 35.3574 24.2565 34.937 24.6966 34.5389C24.9377 34.3193 24.9638 34.1718 24.7703 33.8877C22.2843 30.3034 21.0732 25.9883 21.3313 21.6339C21.6093 16.2995 23.7197 11.7715 27.5749 8.06682C28.0357 7.62754 28.5211 7.60603 28.8897 7.97159C29.2583 8.33715 29.2276 8.86244 28.7453 9.32476C26.7011 11.2762 25.1275 13.6671 24.1436 16.3164C20.293 26.5535 26.6011 38.1914 37.276 40.5123C47.4332 42.721 57.1742 36.4589 59.3215 26.3416C61.3766 16.6651 55.0593 6.86724 45.3966 4.75838C40.7703 3.74773 36.3933 4.40306 32.2657 6.7244C32.0322 6.85495 31.805 7.01777 31.5254 7.00394C31.3411 7.00894 31.1605 6.95073 31.0138 6.83897C30.8672 6.7272 30.7631 6.56862 30.719 6.38956C30.5946 5.94106 30.7651 5.60162 31.1537 5.36969C32.352 4.65501 33.6233 4.07059 34.946 3.62639C37.4873 2.76985 40.1745 2.43123 42.8488 2.63051C45.5232 2.8298 48.1305 3.56294 50.5168 4.78667C52.9031 6.01039 55.02 7.69987 56.7425 9.75534C58.465 11.8108 59.7582 14.1906 60.5457 16.7542C60.9109 17.9618 61.1679 19.1995 61.3136 20.4527C61.3259 20.5556 61.2722 20.6923 61.4334 20.7338L61.4258 24.6474ZM27.045 42.638C26.9989 42.5827 26.9421 42.5074 26.8761 42.4414C25.1056 40.6689 23.3357 38.8959 21.5663 37.1224C21.3574 36.912 21.2299 36.9688 21.0533 37.1485C20.4788 37.7368 19.8998 38.3204 19.3069 38.8903C19.0811 39.1068 19.055 39.2605 19.2931 39.4955C21.0451 41.2362 22.7899 42.9805 24.5276 44.7284C24.7319 44.9342 24.8793 44.9542 25.0898 44.7284C25.6749 44.1233 26.2771 43.535 26.8699 42.939C26.9483 42.8607 27.0527 42.7947 27.045 42.6319V42.638ZM28.3583 37.9549C28.3076 37.8918 28.2533 37.8318 28.1954 37.7752C27.5017 37.1731 26.8524 36.5217 26.2525 35.8261C26.0866 35.6325 25.9914 35.6955 25.8501 35.8414C25.4093 36.3022 24.9715 36.7507 24.5077 37.1777C24.2742 37.3912 24.371 37.5033 24.543 37.6707C25.1451 38.259 25.7425 38.8534 26.3262 39.4601C26.5182 39.6582 26.6441 39.7228 26.8638 39.4801C27.2631 39.0423 27.6978 38.6368 28.1171 38.2175C28.1955 38.1315 28.2692 38.0455 28.3583 37.9487V37.9549Z"
              fill="#F04C28"/>
        <path d="M41.44 38.279C33.6635 38.2406 27.1556 32.682 25.9269 25.1312C24.5445 16.5837 30.4026 8.53374 38.9825 7.19286C47.4932 5.86272 55.6644 11.8437 56.7995 20.3283C57.5675 26.062 55.7136 30.8742 51.3223 34.6787C51.2501 34.7401 51.1779 34.8046 51.1026 34.8615C50.6419 35.2071 50.1396 35.1794 49.8247 34.7924C49.5098 34.4053 49.5621 33.9 50.0136 33.5298C51.0429 32.699 51.9535 31.731 52.72 30.653C58.6058 22.2744 53.7245 10.6073 43.6272 8.9208C35.9566 7.63828 28.6901 12.9757 27.6134 20.6816C26.529 28.452 31.9985 35.5665 39.7566 36.4543C41.9713 36.7134 44.2159 36.4341 46.2997 35.6402C46.5147 35.5588 46.7252 35.4421 46.9602 35.4759C47.381 35.5388 47.6729 35.7831 47.7282 36.2085C47.7973 36.6954 47.5392 37.0011 47.0969 37.1761C45.7085 37.7252 44.2481 38.0708 42.7609 38.2022C42.2893 38.2436 41.8071 38.2575 41.44 38.279Z"
              fill="#F04C28"/>
    </g>
    <defs>
        <clipPath id="clip0_157_249">
            <rect width="64" height="64" fill="white"/>
        </clipPath>
    </defs>
</svg>
