<svg width="64" height="64" viewBox="0 0 64 64" fill="none" xmlns="http://www.w3.org/2000/svg">
<g clip-path="url(#clip0_157_227)">
<path d="M2.57425 19.4528C2.76471 19.3929 2.72785 19.204 2.77393 19.0734C3.46818 16.9108 5.2729 15.5623 7.5461 15.5561C11.2621 15.5459 14.9781 15.5489 18.694 15.5653C19.1548 15.5653 19.2424 15.4271 19.247 14.9955C19.2685 13.4856 19.0934 11.9651 19.3468 10.466C19.5479 9.36512 20.1087 8.36217 20.9412 7.61441C21.7738 6.86665 22.831 6.41639 23.947 6.33426C24.9192 6.26822 25.8992 6.28204 26.8745 6.29125C27.5027 6.29125 27.8713 6.65681 27.8591 7.17442C27.8468 7.69204 27.4751 8.00076 26.8315 8.00844C26.085 8.01766 25.3386 7.99923 24.5906 8.00844C22.3542 8.05145 20.9657 9.47374 20.9611 11.7147C20.9611 12.8436 20.9734 13.9741 20.9611 15.1045C20.9611 15.4394 21.0133 15.5853 21.3912 15.5653C21.8884 15.5346 22.387 15.5346 22.8841 15.5653C23.179 15.5776 23.2819 15.4977 23.2727 15.1859C23.2512 14.3826 23.262 13.5778 23.2727 12.773C23.2804 11.2831 24.1943 10.3354 25.7072 10.3154C28.0111 10.2909 30.3043 10.3154 32.6036 10.3154C34.4468 10.3154 36.2807 10.3154 38.1192 10.3154C39.8763 10.3154 40.7519 11.2124 40.7534 12.9788C40.7534 13.7068 40.7641 14.4349 40.7534 15.1629C40.7534 15.4348 40.781 15.5853 41.1143 15.5684C41.6505 15.5415 42.1878 15.5415 42.724 15.5684C43.022 15.5822 43.0635 15.4563 43.0604 15.2013C43.0481 13.8988 43.0773 12.5902 43.045 11.2938C43.002 9.63963 41.6719 8.17279 40.0223 8.08064C38.2836 7.98541 36.5372 8.02995 34.8 8.02073C33.516 8.02073 32.2335 8.02073 30.9494 8.02073C30.3074 8.02073 29.9495 7.69357 29.9495 7.16521C29.9495 6.63684 30.2905 6.30508 30.891 6.30508C33.9184 6.30508 36.9473 6.2421 39.9685 6.35269C42.7071 6.45253 44.7469 8.70577 44.7822 11.4551C44.7975 12.6608 44.8037 13.8681 44.7822 15.0754C44.7714 15.4808 44.8866 15.5761 45.286 15.5745C48.9446 15.5576 52.6032 15.5638 56.2619 15.5653C59.3737 15.5653 61.4519 17.6373 61.4519 20.7415C61.4519 31.315 61.4519 41.8879 61.4519 52.4604C61.4519 55.6106 59.4075 57.6703 56.248 57.6826C53.471 57.6964 50.694 57.6826 47.9155 57.6826H16.7111C16.4631 57.6907 16.2148 57.6763 15.9693 57.6396C15.7654 57.6142 15.5797 57.5096 15.4523 57.3483C15.325 57.1871 15.2663 56.9822 15.2889 56.7779C15.2854 56.5728 15.3618 56.3743 15.502 56.2244C15.6421 56.0745 15.835 55.985 16.0399 55.9746C16.2498 55.9567 16.4606 55.9511 16.6712 55.9578C29.8128 55.9578 42.9534 55.9578 56.0929 55.9578C57.0406 55.9578 57.9238 55.8042 58.6549 55.1529C59.3107 54.5616 59.7116 53.8212 59.7147 52.9396C59.7301 47.4609 59.7224 41.9837 59.7147 36.5049C59.7147 36.4758 59.684 36.4466 59.6471 36.3775C58.4706 37.3543 57.0806 37.5279 55.6153 37.4956C53.9887 37.4588 52.359 37.4864 50.7309 37.4956C50.2594 37.4956 49.9061 37.3129 49.7663 36.8444C49.6481 36.4466 49.8124 36.1363 50.138 35.9013C50.3577 35.7477 50.6111 35.7708 50.8584 35.7708H56.2603C58.4107 35.7708 59.7193 34.4591 59.7193 32.2964C59.7193 28.4453 59.7193 24.5952 59.7193 20.7461C59.7193 18.5958 58.4137 17.2917 56.2434 17.2917H7.79956C5.60315 17.2917 4.32214 18.585 4.32061 20.7998C4.32061 24.5737 4.38667 28.349 4.29604 32.1198C4.24382 34.3331 5.77363 35.8061 7.94854 35.7923C20.7061 35.7477 33.4637 35.7708 46.2214 35.7708C46.375 35.7708 46.5285 35.7708 46.6821 35.7708C47.3119 35.7861 47.6729 36.1056 47.6652 36.6386C47.6575 37.1715 47.2873 37.491 46.656 37.4926C43.6486 37.4926 40.6413 37.5095 37.6339 37.4818C37.1347 37.4818 37.0395 37.6246 37.0563 38.0839C37.0932 39.0592 37.0779 40.0376 37.0656 41.0145C37.0502 42.2909 36.21 43.131 34.9321 43.1387C32.9968 43.1479 31.062 43.1479 29.1278 43.1387C27.8207 43.1387 26.9882 42.2893 26.9774 40.973C26.9697 39.9962 26.9498 39.0193 26.9882 38.044C27.0051 37.5832 26.8745 37.4833 26.4276 37.4849C20.3544 37.5002 14.2828 37.4849 8.20964 37.5033C6.81654 37.5033 5.51251 37.3052 4.32214 36.3176V36.9611C4.32214 42.1332 4.32214 47.3042 4.32214 52.4742C4.32214 54.6491 5.59701 55.9424 7.76885 55.9578C9.24336 55.967 10.7194 55.9578 12.1939 55.9578C12.5825 55.9578 12.9189 56.0453 13.1155 56.4185C13.1877 56.5449 13.2255 56.6881 13.2248 56.8337C13.2242 56.9793 13.1853 57.1221 13.112 57.2479C13.0387 57.3737 12.9335 57.4779 12.8071 57.5502C12.6808 57.6224 12.5376 57.6602 12.392 57.6596C10.4782 57.6934 8.55218 57.8577 6.65374 57.5828C4.75531 57.3079 3.47583 56.1006 2.82459 54.2713C2.75855 54.0824 2.7908 53.8504 2.59727 53.7137L2.57425 19.4528ZM31.9646 15.553C34.1657 15.553 36.3682 15.553 38.5692 15.5607C38.901 15.5607 39.0408 15.51 39.03 15.1322C38.9962 14.3488 39.007 13.5624 39.03 12.7776C39.0408 12.2646 38.7966 12.0326 38.3066 12.0326H25.7256C25.1973 12.0326 24.973 12.2907 24.9884 12.8221C25.0099 13.5686 25.0191 14.3166 24.9884 15.0615C24.9699 15.4655 25.0836 15.5684 25.4876 15.5638C27.6363 15.5423 29.8005 15.553 31.9646 15.553ZM32.0276 37.4818C31.0723 37.4818 30.1169 37.5048 29.1615 37.4711C28.7438 37.4572 28.6562 37.5955 28.6685 37.9856C28.6977 38.921 28.6915 39.8579 28.6685 40.7933C28.6593 41.2172 28.7714 41.4184 29.246 41.4077C31.0784 41.3877 32.9139 41.3908 34.7478 41.4077C35.1641 41.4077 35.3315 41.2741 35.3238 40.8471C35.3038 39.8733 35.3023 38.8979 35.3238 37.9288C35.3238 37.5862 35.2547 37.468 34.8876 37.468C33.9383 37.5002 32.983 37.4818 32.0215 37.4818H32.0276Z" fill="black"/>
<path d="M49.7572 47.0139C51.2701 47.0139 52.783 47.0139 54.2959 47.0139C55.6552 47.0139 56.4616 47.8326 56.4708 49.1996C56.4708 49.9845 56.4708 50.7693 56.4708 51.5557C56.4708 52.9611 55.6383 53.7798 54.2006 53.7844C51.5004 53.7936 48.8002 53.7844 46.1 53.7844C45.641 53.8002 45.1815 53.7812 44.7254 53.7276C44.2647 53.666 43.8414 53.4409 43.5329 53.0932C43.2245 52.7455 43.0513 52.2985 43.0451 51.8337C43.0184 50.8763 43.0184 49.9189 43.0451 48.9615C43.0477 48.7025 43.1015 48.4465 43.2034 48.2084C43.3053 47.9702 43.4533 47.7546 43.6388 47.5738C43.8244 47.3931 44.044 47.2509 44.2847 47.1553C44.5255 47.0597 44.7828 47.0127 45.0418 47.017C46.6131 47.0032 48.1859 47.0139 49.7572 47.0139ZM46.5148 52.0641C46.8788 52.0641 47.2443 52.0442 47.6053 52.0641C47.9309 52.0856 48.1167 51.995 48.2534 51.6709C48.6129 50.8077 49.0091 49.9599 49.4116 49.1151C49.5544 48.8156 49.5175 48.7234 49.1704 48.7265C47.8679 48.7409 46.566 48.7409 45.2645 48.7265C44.8928 48.7265 44.7484 48.854 44.7576 49.2288C44.7745 49.9967 44.7776 50.7647 44.7576 51.5327C44.7469 51.9428 44.9312 52.078 45.309 52.0672C45.7099 52.0534 46.1124 52.0641 46.5148 52.0641ZM52.2961 52.0641C52.9458 52.0641 53.5955 52.0641 54.2467 52.0641C54.5647 52.0641 54.7536 51.9566 54.749 51.6033C54.7398 50.8 54.749 49.9968 54.749 49.1935C54.749 48.8863 54.6399 48.7327 54.3143 48.7327C53.4526 48.7419 52.5925 48.7434 51.7324 48.7327C51.6486 48.726 51.565 48.7487 51.496 48.7969C51.4271 48.8451 51.3771 48.9158 51.3546 48.9968C50.9506 49.9015 50.5528 50.8093 50.1258 51.7017C49.9446 52.078 50.1365 52.0672 50.4053 52.0641C51.0335 52.0595 51.6648 52.0641 52.2961 52.0641Z" fill="black"/>
<path d="M32.0215 40.2834C31.9071 40.2886 31.7929 40.2699 31.686 40.2287C31.5792 40.1875 31.482 40.1245 31.4008 40.0438C31.3195 39.9631 31.2558 39.8665 31.2138 39.7599C31.1718 39.6533 31.1524 39.5392 31.1568 39.4248C31.1591 39.2032 31.2473 38.9911 31.4029 38.8332C31.5585 38.6754 31.7692 38.584 31.9908 38.5785C32.1054 38.577 32.2192 38.5986 32.3253 38.642C32.4313 38.6855 32.5276 38.7498 32.6083 38.8312C32.689 38.9126 32.7524 39.0094 32.7949 39.1159C32.8374 39.2224 32.858 39.3363 32.8555 39.4509C32.8563 39.5606 32.8353 39.6693 32.7937 39.7708C32.752 39.8723 32.6906 39.9644 32.613 40.0419C32.5354 40.1194 32.4431 40.1807 32.3415 40.2221C32.24 40.2636 32.1312 40.2844 32.0215 40.2834Z" fill="black"/>
</g>
<defs>
<clipPath id="clip0_157_227">
<rect width="64" height="64" fill="white"/>
</clipPath>
</defs>
</svg>
