<svg width="64" height="64" viewBox="0 0 64 64" fill="#F04C28" xmlns="http://www.w3.org/2000/svg">
    <g clip-path="url(#clip0_157_221)">
        <path d="M18.0905 61.4211H11.9988C10.8208 60.8667 10.426 59.9067 10.5428 58.6564C10.5812 58.2386 10.5504 57.8132 10.5428 57.3923C10.5428 56.9147 10.7087 56.2957 10.4737 55.9977C10.2387 55.6997 9.57667 55.9347 9.1036 55.8948C9.04677 55.8948 8.98839 55.8948 8.93156 55.8948C7.97351 55.8605 7.06558 55.4582 6.39649 54.7717C5.72739 54.0851 5.34864 53.1671 5.33898 52.2085C5.32158 45.2373 5.32158 38.2657 5.33898 31.2935C5.33898 30.656 5.65384 30.2843 6.17299 30.269C6.7244 30.2536 7.05617 30.6299 7.06078 31.295C7.06078 32.063 7.07614 32.831 7.06078 33.5989C7.05156 33.9061 7.14833 33.986 7.4463 33.9798C8.36787 33.9614 9.28944 33.9629 10.211 33.9798C10.4829 33.9798 10.5689 33.9092 10.5674 33.6296C10.5582 30.7175 10.5582 27.8058 10.5674 24.8947C10.5674 24.5875 10.466 24.5107 10.1757 24.5169C9.27562 24.5337 8.37401 24.5368 7.47548 24.5169C7.14371 24.5076 7.05617 24.6121 7.06539 24.9331C7.08689 25.718 7.08229 26.5044 7.06539 27.2892C7.05617 27.8637 6.7075 28.2292 6.20371 28.2262C5.69991 28.2231 5.36817 27.8591 5.3436 27.2816C5.3436 27.1848 5.3436 27.0896 5.3436 26.9943C5.3436 20.2126 5.3436 13.4319 5.3436 6.6522C5.3436 4.12864 6.89182 2.59269 9.43535 2.59269H54.5447C57.1558 2.59269 58.6657 4.11481 58.6657 6.73975V41.7195C58.6754 41.911 58.6713 42.103 58.6534 42.2939C58.6381 42.4278 58.5916 42.5561 58.5174 42.6685C58.4432 42.7809 58.3435 42.8742 58.2265 42.9408C58.1094 43.0074 57.9783 43.0455 57.8438 43.0518C57.7092 43.0582 57.5751 43.0327 57.4523 42.9774C57.0606 42.7916 56.9346 42.4583 56.9362 42.0344C56.9454 40.0806 56.927 38.1269 56.9515 36.1732C56.9515 35.7585 56.8333 35.6632 56.4385 35.6786C55.6352 35.7093 54.8289 35.7216 54.0271 35.6786C53.5294 35.6494 53.4388 35.8199 53.4419 36.2822C53.4603 40.3249 53.4557 44.3659 53.4511 48.407C53.4511 49.8815 52.6539 50.6695 51.1779 50.6864C50.5451 50.6864 49.9138 50.6864 49.281 50.6864H13.1862C11.2155 50.6864 10.5489 50.0121 10.5489 48.0215C10.5489 47.1414 10.5305 46.2598 10.5566 45.3797C10.5674 45.0203 10.4583 44.9189 10.105 44.9312C9.24491 44.9557 8.38169 44.9604 7.52003 44.9312C7.13297 44.9173 7.05002 45.0433 7.05155 45.4104C7.06845 47.5945 7.05156 49.7771 7.06078 51.9612C7.06078 53.3436 7.88557 54.1776 9.27561 54.1776C24.4303 54.1776 39.5815 54.1776 54.729 54.1776C56.1114 54.1776 56.9285 53.3405 56.9316 51.9489C56.9316 49.9952 56.9316 48.0415 56.9316 46.0877C56.9316 45.4734 57.2772 45.094 57.8009 45.1001C58.3247 45.1063 58.6487 45.4718 58.6518 46.054C58.6518 48.1413 58.6795 50.2302 58.6411 52.316C58.6088 54.044 57.3324 55.4724 55.6275 55.8211C55.0377 55.9424 54.4448 55.904 53.8535 55.8963C53.5371 55.8963 53.4234 55.9685 53.4342 56.3034C53.4572 57.1466 53.402 57.9929 53.4511 58.8315C53.5218 60.0772 53.0871 60.9819 51.8768 61.4242H45.7852C44.5964 60.8897 44.2001 59.9451 44.2938 58.6918C44.3506 57.9238 44.2799 57.1558 44.3137 56.3986C44.3322 55.9992 44.2247 55.8917 43.8176 55.8948C41.2357 55.9148 38.6522 55.904 36.0703 55.904C30.7713 55.904 25.4717 55.9009 20.1717 55.8948C19.7693 55.8948 19.6571 55.9916 19.6725 56.3955C19.7063 57.2357 19.6479 58.0851 19.6909 58.9191C19.76 60.154 19.2731 60.9988 18.0905 61.4211ZM9.21572 4.30527C7.99925 4.30527 7.08689 5.09321 7.06539 6.22982C7.03467 8.54757 7.06537 10.8653 7.04694 13.1815C7.04694 13.4688 7.13758 13.5363 7.4079 13.5317C8.32948 13.5164 9.25104 13.5133 10.1649 13.5317C10.4721 13.5317 10.5551 13.4426 10.5489 13.1431C10.532 12.1663 10.5489 11.1894 10.5489 10.2125C10.5489 8.54911 11.3077 7.78881 12.965 7.78881H24.1774C25.0775 7.78881 25.4707 8.04378 25.486 8.63205C25.5014 9.24643 25.1113 9.51368 24.1682 9.51368C20.4343 9.51368 16.6989 9.5229 12.9558 9.50446C12.4274 9.50446 12.2431 9.66574 12.2646 10.1956C12.2999 11.0757 12.3076 11.9589 12.2646 12.8375C12.237 13.3705 12.3521 13.5578 12.9358 13.5425C14.4886 13.501 15.2582 14.3012 15.2597 15.8602C15.2597 17.9297 15.2597 19.9981 15.2597 22.0655C15.2597 23.7811 14.5393 24.523 12.816 24.4969C12.3291 24.4892 12.2646 24.6628 12.2676 25.0836C12.283 27.8606 12.2876 30.6376 12.2676 33.4146C12.2676 33.8754 12.4013 34.029 12.8406 33.9645C12.955 33.9545 13.0702 33.9545 13.1846 33.9645C14.4134 33.9983 15.2459 34.8062 15.2551 36.0273C15.2751 38.3066 15.2551 40.586 15.2627 42.8653C15.2742 43.2118 15.1953 43.5554 15.0337 43.8621C14.8721 44.1689 14.6334 44.4283 14.3412 44.6148C13.9449 44.882 13.4934 44.9389 13.0264 44.9419C12.1832 44.9419 12.283 44.8098 12.2784 45.7099C12.2784 46.5132 12.2784 47.318 12.2784 48.1229C12.2784 48.9538 12.2784 48.9554 13.0971 48.9554H50.906C51.7232 48.9554 51.7232 48.9554 51.7232 48.1213V10.3738C51.7232 9.51522 51.7232 9.51368 50.8738 9.51368C43.4613 9.51368 36.0488 9.51368 28.6363 9.51368C27.9267 9.51368 27.5166 9.18192 27.5289 8.6428C27.5412 8.10368 27.9374 7.79342 28.6117 7.79342C36.1778 7.79342 43.7439 7.79342 51.31 7.79342C51.6268 7.78154 51.9421 7.84237 52.2318 7.97123C52.5215 8.10009 52.7778 8.29356 52.9811 8.53682C53.3758 9.00682 53.4511 9.56437 53.4496 10.1511C53.4496 14.1538 53.4496 18.158 53.4373 22.1607C53.4373 22.6384 53.5095 22.8427 54.0517 22.8043C54.8162 22.7543 55.5833 22.7543 56.3479 22.8043C56.821 22.8304 56.9515 22.7044 56.95 22.2175C56.93 17.046 56.9377 11.8744 56.9377 6.70443C56.9377 5.07171 56.182 4.31295 54.5585 4.31295C47.0447 4.30374 14.1 4.3022 9.21572 4.30527ZM7.06539 19.0228C7.06539 20.1148 7.08535 21.2069 7.05463 22.2974C7.04234 22.7121 7.17598 22.7997 7.56765 22.795C9.34935 22.7735 11.13 22.7735 12.9097 22.795C13.3828 22.795 13.5502 22.6553 13.5456 22.1807C13.5256 20.0749 13.5287 17.9691 13.5456 15.8633C13.5456 15.4271 13.4227 15.2489 12.9604 15.2489C11.1418 15.2674 9.32274 15.2674 7.50315 15.2489C7.14374 15.2489 7.05156 15.3472 7.0577 15.6974C7.0746 16.8018 7.06078 17.9123 7.06078 19.0228H7.06539ZM7.06539 39.4309C7.06539 40.5414 7.07614 41.6519 7.06539 42.7609C7.06539 43.0926 7.11455 43.2217 7.49239 43.2217C9.33553 43.2002 11.1694 43.2048 13.0064 43.2217C13.395 43.2217 13.5532 43.0972 13.5502 42.6918C13.5379 40.5476 13.5379 38.4034 13.5502 36.2592C13.5502 35.8445 13.4196 35.6801 12.988 35.6847C11.1449 35.7011 9.30684 35.7011 7.47394 35.6847C7.14064 35.6847 7.06078 35.7861 7.06539 36.1041C7.07153 37.2099 7.06078 38.3204 7.06078 39.4325L7.06539 39.4309ZM56.9377 29.2414C56.9377 27.8053 56.93 26.3692 56.9377 24.9408C56.9377 24.6428 56.8978 24.5 56.5445 24.5092C55.646 24.5353 54.7444 24.5337 53.8459 24.5092C53.5095 24.5 53.4373 24.6136 53.4388 24.93C53.4501 27.8022 53.4501 30.6745 53.4388 33.5467C53.4388 33.8539 53.4864 33.986 53.8351 33.9768C54.7352 33.9522 55.6352 33.9522 56.5353 33.9768C56.8717 33.9768 56.9423 33.8708 56.9392 33.5559C56.9239 32.1137 56.9331 30.6775 56.9331 29.2414H56.9377ZM15.1261 55.9009C14.3043 55.9009 13.4826 55.9132 12.6685 55.9009C12.3613 55.9009 12.2784 55.9931 12.283 56.2911C12.2999 57.2464 12.2968 58.2018 12.283 59.1571C12.283 59.5319 12.3921 59.7147 12.8083 59.7101C14.3565 59.6937 15.9053 59.6937 17.4545 59.7101C17.8677 59.7101 17.9829 59.5365 17.9768 59.1571C17.963 58.2018 17.9614 57.2449 17.9768 56.2895C17.9768 55.9823 17.9 55.8948 17.5943 55.9025C16.7634 55.9148 15.9416 55.9009 15.1261 55.9009ZM48.894 55.9009C48.0707 55.9009 47.2489 55.9117 46.4272 55.9009C46.14 55.9009 46.0263 55.9608 46.0325 56.2772C46.054 57.251 46.0478 58.2264 46.0325 59.1955C46.0325 59.5611 46.1707 59.7055 46.5424 59.7024C48.0906 59.6901 49.6389 59.687 51.1887 59.7024C51.5941 59.7024 51.7308 59.5488 51.7262 59.1618C51.7139 58.2064 51.7063 57.2495 51.7262 56.2941C51.7355 55.947 51.6003 55.8871 51.2946 55.8933C50.4913 55.9132 49.685 55.9009 48.8863 55.9009H48.894Z"
              fill="#F04C28"/>
        <path d="M23.9516 19.3115C24.2911 19.2869 24.5245 19.5112 24.758 19.7477C25.0944 20.0856 25.3985 20.6032 25.7963 20.6954C26.1941 20.7876 26.5551 20.2254 26.9483 19.9735C28.3737 19.0343 29.999 18.4415 31.6944 18.2425C32.1152 18.1949 32.1905 18.0428 32.1644 17.6773C32.1405 17.2757 32.1405 16.8731 32.1644 16.4715C32.1951 15.8787 32.5299 15.55 33.046 15.55C33.5621 15.55 33.8416 15.8833 33.8831 16.4516C33.9246 17.0199 33.645 17.7494 33.9952 18.1073C34.3116 18.4283 35.0396 18.3224 35.5757 18.4498C37.1452 18.8137 38.6119 19.5284 39.8656 20.5403C40.1529 20.7722 40.3141 20.7768 40.5522 20.4988C40.8439 20.169 41.1552 19.8571 41.4845 19.5649C41.5644 19.4828 41.6599 19.4176 41.7654 19.373C41.871 19.3284 41.9844 19.3055 42.0989 19.3055C42.2135 19.3055 42.3268 19.3284 42.4323 19.373C42.5379 19.4176 42.6334 19.4828 42.7133 19.5649C42.8655 19.7272 42.949 19.942 42.9465 20.1644C42.9439 20.3869 42.8554 20.5997 42.6995 20.7584C42.3661 21.1255 42.0098 21.4757 41.6473 21.8166C41.4722 21.9825 41.4753 22.09 41.6289 22.2774C42.9684 23.9153 43.8025 25.9075 44.0296 28.0111C44.0664 28.326 44.1832 28.3782 44.4596 28.3675C44.8989 28.3506 45.3413 28.349 45.7806 28.3675C46.3719 28.3936 46.7144 28.7346 46.7021 29.246C46.6929 29.7329 46.3581 30.0432 45.799 30.0862C45.2399 30.1292 44.4996 29.8481 44.1448 30.1968C43.8222 30.5117 43.9297 31.2428 43.8007 31.7788C43.4324 33.3473 42.717 34.8132 41.7072 36.0687C41.4799 36.3513 41.4676 36.5157 41.7487 36.7492C42.0205 36.9914 42.2794 37.2478 42.5243 37.5171C43.0143 38.0163 43.0742 38.5478 42.6779 38.921C42.2817 39.2942 41.7886 39.2159 41.3171 38.7536C41.0099 38.4587 40.7027 38.1684 40.4262 37.8581C40.2619 37.6799 40.1544 37.6815 39.9655 37.8351C38.3127 39.187 36.3002 40.0253 34.1765 40.2465C33.9246 40.2757 33.8585 40.3679 33.8693 40.6029C33.8831 41.0421 33.8816 41.483 33.8693 41.9238C33.8524 42.5627 33.5329 42.9206 33.003 42.9145C32.4731 42.9083 32.1843 42.5658 32.1459 41.9637C32.1121 41.4138 32.3794 40.6919 32.0461 40.3617C31.7128 40.0315 31.0016 40.1436 30.4671 40.0146C28.9017 39.649 27.4384 38.9367 26.1849 37.9303C25.9069 37.7045 25.7426 37.6815 25.5014 37.9656C25.2113 38.2964 24.8999 38.6079 24.5691 38.898C24.1774 39.2528 23.6644 39.2466 23.3403 38.9087C23.0162 38.5708 23.0116 38.0701 23.3787 37.68C23.7064 37.3298 24.0448 36.9913 24.394 36.6647C24.566 36.5019 24.5798 36.3897 24.4216 36.1947C23.0669 34.5438 22.2287 32.5303 22.0117 30.4057C21.9841 30.1446 21.875 30.0985 21.6492 30.0985C21.21 30.1092 20.7692 30.1108 20.3283 30.0985C19.6802 30.0785 19.3376 29.7683 19.3453 29.2276C19.3453 28.7146 19.6894 28.412 20.2945 28.3752C20.8444 28.3414 21.551 28.6055 21.8996 28.2722C22.2068 27.9758 22.1162 27.2693 22.2329 26.7517C22.5891 25.1605 23.3076 23.673 24.3325 22.4049C24.5599 22.1223 24.5798 21.9595 24.2957 21.7153C23.9524 21.4099 23.6268 21.0853 23.3204 20.743C23.1992 20.6171 23.1213 20.4559 23.0978 20.2828C23.0743 20.1097 23.1066 19.9336 23.1898 19.78C23.2554 19.6347 23.363 19.5124 23.4988 19.4288C23.6346 19.3453 23.7924 19.3045 23.9516 19.3115ZM23.6767 29.2107C23.6724 30.4374 23.91 31.6529 24.3757 32.7877C24.8414 33.9226 25.5261 34.9545 26.3908 35.8246C27.2555 36.6947 28.2831 37.3859 29.4151 37.8587C30.547 38.3315 31.761 38.5766 32.9876 38.58C34.2135 38.5871 35.4287 38.3525 36.5638 37.8896C37.6989 37.4267 38.7317 36.7445 39.603 35.8822C40.4743 35.0199 41.1671 33.9943 41.6417 32.864C42.1164 31.7338 42.3636 30.5211 42.3692 29.2952C42.3775 28.0639 42.1422 26.8431 41.6768 25.7031C41.2114 24.5631 40.5251 23.5264 39.6574 22.6527C38.7897 21.779 37.7577 21.0856 36.621 20.6123C35.4842 20.1391 34.2651 19.8953 33.0337 19.8952C30.5578 19.8911 28.1814 20.8701 26.4269 22.6172C24.6724 24.3642 23.6832 26.7363 23.6767 29.2122V29.2107Z"
              fill="#F04C28"/>
        <path d="M28.5548 29.4319C28.5456 27.0281 30.1354 25.1957 32.4116 24.8117C34.4514 24.4662 36.6094 25.7825 37.2468 27.8284C37.4004 28.3045 37.6047 28.4197 38.0424 28.3782C38.3667 28.3503 38.693 28.3555 39.0162 28.3936C39.5047 28.4504 39.7842 28.7653 39.7842 29.243C39.7904 29.3494 39.775 29.456 39.7389 29.5564C39.7028 29.6567 39.6468 29.7487 39.5741 29.8268C39.5015 29.9049 39.4138 29.9675 39.3163 30.0107C39.2189 30.054 39.1136 30.077 39.007 30.0785C38.6635 30.1141 38.3175 30.1182 37.9733 30.0908C37.5617 30.0493 37.3912 30.1968 37.2668 30.6023C36.9936 31.4657 36.4637 32.2254 35.7478 32.78C35.0318 33.3346 34.1638 33.6577 33.2595 33.7064C32.3641 33.7488 31.4765 33.5229 30.7104 33.0577C29.9442 32.5926 29.3343 31.9092 28.9588 31.0953C28.7164 30.5727 28.5791 30.0075 28.5548 29.4319ZM30.2782 29.243C30.2838 29.968 30.574 30.6618 31.0862 31.1749C31.5985 31.688 32.2918 31.9793 33.0168 31.9862C33.7427 31.9831 34.4386 31.6958 34.9554 31.186C35.4721 30.6761 35.7687 29.9842 35.7815 29.2583C35.7815 28.8946 35.7097 28.5345 35.5703 28.1985C35.4309 27.8626 35.2266 27.5575 34.969 27.3007C34.7115 27.0438 34.4058 26.8403 34.0695 26.7019C33.7332 26.5634 33.3728 26.4926 33.0091 26.4936C32.2844 26.5025 31.5921 26.7955 31.0814 27.3098C30.5706 27.824 30.2822 28.5182 30.2782 29.243Z"
              fill="#F04C28"/>
    </g>
    <defs>
        <clipPath id="clip0_157_221">
            <rect width="64" height="64" fill="white"/>
        </clipPath>
    </defs>
</svg>
