<svg width="64" height="64" viewBox="0 0 64 64" fill="none" xmlns="http://www.w3.org/2000/svg">
<g clip-path="url(#clip0_157_236)">
<path d="M29.5809 61.4211C28.9665 61.157 28.2892 61.1938 27.6441 61.1017C15.6806 59.3983 5.76751 50.1242 3.24702 38.2621C0.726522 26.3999 5.51099 14.4057 15.4778 7.65364C15.6572 7.51159 15.8585 7.39954 16.0737 7.32188C16.2598 7.26244 16.4612 7.27434 16.639 7.35525C16.8167 7.43616 16.9579 7.5803 17.0353 7.75962C17.2718 8.22041 17.1136 8.62129 16.7004 8.90544C15.7938 9.5128 14.922 10.1707 14.0893 10.8761C13.7422 11.1756 13.415 11.4904 13.0786 11.8084C13.3858 12.1371 13.693 12.4735 14.0002 12.7945C14.8373 13.6377 15.6898 14.464 16.513 15.3211C16.7619 15.5807 16.9047 15.6114 17.1919 15.3564C21.6062 11.4597 26.7778 9.57973 32.6497 9.73793C37.9856 9.88077 42.681 11.7577 46.6975 15.2873C47.0185 15.5699 47.189 15.6114 47.5085 15.2781C48.5391 14.2029 49.6051 13.1508 50.6741 12.1064C50.9045 11.8806 50.9045 11.7623 50.6618 11.5442C46.567 7.8441 41.8101 5.51406 36.356 4.65546C30.9427 3.77101 25.3886 4.53022 20.4113 6.83498C19.7846 7.12067 19.3162 6.99779 19.0842 6.5155C18.84 6.00864 19.0581 5.554 19.7124 5.25756C24.6224 2.99337 30.065 2.13777 35.4329 2.78621C41.2262 3.463 46.6876 5.84695 51.1228 9.63508C55.558 13.4232 58.7668 18.4445 60.3414 24.0607C60.8308 25.8112 61.1548 27.6039 61.309 29.415C61.3167 29.5179 61.266 29.6515 61.4212 29.7007V34.413C61.2676 34.4606 61.3121 34.5942 61.3029 34.6987C60.8421 39.6045 59.3061 44.1509 56.5307 48.2289C51.6602 55.4018 44.9343 59.7162 36.3514 61.1001C35.6295 61.2169 34.8845 61.1785 34.1826 61.4211H29.5809ZM11.8468 13.0387C11.7393 13.1385 11.6502 13.2076 11.5749 13.289C7.05924 18.2701 4.62784 24.1267 4.3268 30.8327C4.08104 36.3037 5.32209 41.4553 8.20661 46.1154C13.4596 54.6 21.1255 59.1848 31.1015 59.6548C37.3175 59.9466 43.0328 58.1864 48.0661 54.5124C55.2328 49.2794 59.0665 42.168 59.6748 33.3163C59.6978 32.96 59.6072 32.8555 59.2478 32.8632C57.8654 32.8832 56.4831 32.8632 55.1099 32.8632C54.2529 32.8632 54.2652 32.8632 54.1884 33.6942C53.6339 40.1774 50.8185 45.4918 45.7161 49.4976C40.3049 53.746 34.1381 55.0992 27.3937 53.7982C25.7618 53.4751 24.1767 52.9493 22.6753 52.2331C22.1484 51.9858 21.958 51.5281 22.1638 51.0673C22.3696 50.6065 22.812 50.4529 23.328 50.6418C23.5077 50.7048 23.6798 50.7954 23.8549 50.8645C28.1356 52.6939 32.5422 53.0548 37.0472 51.9059C47.4916 49.2411 54.0025 39.1575 52.2269 28.4366C50.6557 18.9582 42.2924 11.6855 32.6636 11.4474C27.6825 11.323 23.1483 12.7085 19.2808 15.8618C13.1692 20.8459 10.595 27.3476 11.7024 35.1456C12.4919 40.6966 15.3165 45.1508 19.7923 48.5422C20.3145 48.9385 20.4389 49.4484 20.1271 49.8677C19.8153 50.287 19.2977 50.3116 18.7601 49.9245C11.6241 44.8006 8.17437 35.2777 10.3308 26.7194C11.195 23.1748 12.922 19.8987 15.358 17.1827C15.5515 16.9677 15.6283 16.8325 15.3764 16.5867C14.1968 15.424 13.0295 14.2429 11.8468 13.0433V13.0387ZM56.947 31.1383C57.7149 31.1383 58.4829 31.1214 59.2509 31.146C59.6103 31.1583 59.7116 31.0539 59.6794 30.6929C59.5984 29.4331 59.4502 28.1785 59.2355 26.9344C58.3046 21.8656 55.9682 17.1604 52.4927 13.3551C52.2316 13.0648 52.1041 13.0971 51.8537 13.3551C50.8123 14.4303 49.7602 15.4839 48.6835 16.5207C48.3871 16.8064 48.424 16.9584 48.6835 17.2426C50.4538 19.2068 51.8467 21.4806 52.7922 23.9501C53.6243 26.0719 54.1086 28.314 54.2267 30.59C54.2483 31.0216 54.3804 31.1798 54.8319 31.1522C55.5277 31.1122 56.2373 31.1383 56.947 31.1383Z" fill="black"/>
<path d="M31.9647 42.2325C29.5153 42.2325 27.065 42.2325 24.6136 42.2325C22.8089 42.2325 21.7644 41.1834 21.7644 39.3818C21.7644 34.4667 21.7644 29.5471 21.7644 24.6228C21.7644 22.8165 22.8058 21.769 24.609 21.7675C29.5087 21.7675 34.4099 21.7675 39.3111 21.7675C39.9793 21.7675 40.6105 21.8597 41.1543 22.2713C41.3371 22.4095 41.4338 22.345 41.5935 22.2421C42.7132 21.5156 43.7562 21.6277 44.7023 22.5493C45.2353 23.0731 45.7652 23.5983 46.2859 24.1344C47.2827 25.1604 47.2935 26.4859 46.2936 27.5058C45.074 28.7489 43.8412 29.9777 42.595 31.1921C42.47 31.3043 42.3714 31.4428 42.3064 31.5976C42.2413 31.7524 42.2114 31.9198 42.2187 32.0875C42.2356 34.5451 42.231 36.9888 42.2264 39.4386C42.2264 41.1604 41.1604 42.2248 39.4325 42.2279C36.9427 42.2371 34.4529 42.2325 31.9647 42.2325ZM40.4984 33.2902C38.8688 34.9245 37.3497 36.4665 35.8092 37.9856C34.8354 38.9456 33.4761 38.9763 32.5192 38.0317C30.2419 35.7861 27.9804 33.5252 25.7348 31.2489C24.7595 30.2613 24.7979 28.922 25.7732 27.9205C26.2678 27.4136 26.7732 26.916 27.2754 26.4168C28.4427 25.2541 29.7329 25.2495 30.8941 26.4045C31.8725 27.3768 32.8555 28.3429 33.8124 29.3367C34.0828 29.6162 34.2287 29.5901 34.479 29.3244C35.0412 28.7238 35.6341 28.1509 36.2192 27.5719C36.7046 27.0926 37.1884 27.0373 37.574 27.4044C37.9841 27.7961 37.9365 28.2876 37.4204 28.8022C36.6104 29.6213 35.7984 30.4338 34.9843 31.2397C34.327 31.894 33.943 31.8986 33.2948 31.252C32.0737 30.0355 30.8588 28.8129 29.6362 27.5995C29.1892 27.1556 28.9742 27.1587 28.5272 27.5995C28.0357 28.0828 27.5488 28.5707 27.0665 29.0633C26.6503 29.4887 26.6518 29.7391 27.085 30.1738C29.2496 32.3425 31.4148 34.5103 33.5805 36.677C33.9491 37.0471 34.2855 37.0779 34.6557 36.7C38.1075 33.2451 41.5603 29.7923 45.0141 26.3416C45.3674 25.9898 45.3797 25.6611 45.0141 25.3079C44.5195 24.8286 44.0403 24.3325 43.5488 23.8487C43.0573 23.3649 42.8668 23.3603 42.36 23.8625C41.721 24.4953 41.099 25.1466 40.4447 25.764C40.3658 25.8491 40.2699 25.9165 40.1632 25.962C40.0565 26.0074 39.9414 26.0299 39.8255 26.0278C39.7095 26.0258 39.5953 25.9994 39.4903 25.9502C39.3852 25.901 39.2917 25.8303 39.2159 25.7425C38.8995 25.4046 38.9087 24.9392 39.2374 24.5537C39.414 24.3525 39.6183 24.1759 39.798 23.9777C39.8917 23.8733 40.1052 23.8011 40.0146 23.6245C39.9424 23.4832 39.7489 23.4985 39.5953 23.497H39.3081C34.4258 23.497 29.543 23.497 24.6597 23.497C23.7381 23.497 23.4801 23.7627 23.4801 24.6996C23.4801 29.5624 23.4801 34.4263 23.4801 39.2912C23.4801 40.2603 23.732 40.5199 24.6981 40.5199H38.5416C38.9056 40.5199 39.2696 40.5353 39.6337 40.5199C40.1451 40.4892 40.4769 40.202 40.4815 39.6905C40.5092 37.5893 40.4984 35.5112 40.4984 33.2887V33.2902Z" fill="black"/>
</g>
<defs>
<clipPath id="clip0_157_236">
<rect width="64" height="64" fill="white"/>
</clipPath>
</defs>
</svg>
