<svg width="64" height="64" viewBox="0 0 64 64" fill="#F04C28" xmlns="http://www.w3.org/2000/svg">
    <g clip-path="url(#clip0_157_264)">
        <path d="M2.57885 26.4951C2.82211 26.0225 3.14712 25.5966 3.53882 25.2372C5.26523 23.5251 6.986 21.8059 8.70115 20.0795C8.89161 19.889 9.07592 19.6847 9.35239 19.631C9.5221 19.5907 9.70028 19.6059 9.86067 19.6745C10.0211 19.7431 10.1552 19.8613 10.2432 20.0119C10.3593 20.1687 10.4132 20.3629 10.3948 20.5571C10.3764 20.7513 10.2869 20.9318 10.1434 21.064C9.62886 21.6047 9.09435 22.1269 8.56598 22.6553C7.26657 23.9547 5.97484 25.2664 4.65853 26.5474C4.36824 26.8315 4.32368 26.9774 4.64316 27.2877C6.17911 28.7858 7.69562 30.3028 9.19266 31.8387C9.49985 32.1459 9.6304 32.0691 9.88997 31.808C13.4032 28.2784 16.9221 24.7549 20.4466 21.2376C20.743 20.9412 21.2299 20.6493 21.2575 20.316C21.2852 19.9827 20.7507 19.7016 20.4573 19.4037C19.1364 18.0705 17.7955 16.7557 16.4869 15.4102C16.1981 15.1138 16.0522 15.1368 15.7803 15.4194C14.8588 16.3717 13.9188 17.2963 12.9818 18.2287C12.4581 18.7478 11.985 18.8123 11.5857 18.4253C11.1863 18.0382 11.2339 17.5436 11.7393 17.0306C12.753 16.0128 13.7693 14.997 14.7881 13.9833C15.6298 13.1493 16.6313 13.1462 17.4699 13.9833C19.141 15.6442 20.807 17.3102 22.4679 18.9813C23.2973 19.8168 23.3096 20.8352 22.4402 21.6569C22.0209 22.0532 22.1223 22.2221 22.451 22.6246C23.1898 23.5277 23.9869 23.9347 25.1589 23.52C25.7978 23.2958 26.5059 23.2604 27.1879 23.1667C27.4121 23.136 27.515 22.984 27.6486 22.8596C28.925 21.5893 30.2045 20.3237 31.467 19.0396C32.619 17.8662 33.9614 17.5037 35.5527 17.9399C37.0272 18.3454 38.5186 18.6818 39.9946 19.0765C40.1166 19.1244 40.2508 19.1315 40.3771 19.0966C40.5034 19.0617 40.615 18.9867 40.695 18.883C41.0294 18.5143 41.3821 18.1626 41.7517 17.8293C41.9837 17.6204 41.933 17.4976 41.7425 17.2963C40.5875 16.0676 40.609 15.3334 41.8147 14.1261L46.4471 9.49371C47.3856 8.55832 48.3487 8.55678 49.2948 9.50293C53.1029 13.3059 56.908 17.112 60.71 20.9212C61.6807 21.8919 61.673 22.8288 60.6946 23.8103C59.1003 25.4108 57.5024 27.0087 55.9009 28.604C54.9532 29.5486 53.9917 29.5594 53.0548 28.604C52.763 28.3045 52.634 28.3137 52.2669 28.5702C51.0381 29.4242 50.9413 30.5055 51.3453 31.7957C51.5798 32.5534 51.5652 33.3662 51.3038 34.115C50.9244 35.2393 50.0566 35.9797 49.2011 36.7108C48.8617 37.0011 48.4331 36.912 48.1259 36.5664C48.0517 36.4968 47.992 36.4131 47.9503 36.3202C47.9086 36.2274 47.8859 36.1271 47.8833 36.0254C47.8807 35.9236 47.8984 35.8224 47.9353 35.7275C47.9722 35.6326 48.0276 35.546 48.0983 35.4728C48.3932 35.1226 48.7311 34.8062 49.0598 34.4852C49.6342 33.923 49.8861 33.2702 49.7264 32.4608C49.5667 31.6513 49.453 30.7989 49.2871 29.9756C49.2293 29.7633 49.232 29.5389 49.2949 29.328C49.3579 29.1171 49.4786 28.9281 49.6435 28.7822C50.1595 28.2968 50.6403 27.7746 51.1564 27.2892C51.3729 27.085 51.4344 26.9698 51.184 26.7194C48.6128 24.1707 46.0529 21.6108 43.5043 19.0396C43.2646 18.797 43.1387 18.8384 42.9313 19.0581C42.4598 19.5603 41.9483 20.0257 41.4799 20.5311C41.33 20.7164 41.1265 20.851 40.8972 20.9164C40.6679 20.9819 40.4241 20.9749 40.1989 20.8966C38.4464 20.4266 36.68 20.0088 34.9229 19.5542C34.5546 19.443 34.1624 19.4376 33.7911 19.5387C33.4198 19.6397 33.0845 19.8431 32.8233 20.1256C30.0186 22.9292 27.2155 25.7333 24.4139 28.538C23.6751 29.2814 23.646 30.3243 24.3218 31.0032C25.0283 31.7158 26.0451 31.6974 26.8254 30.9279C28.0403 29.7329 29.2384 28.5195 30.4441 27.3153C31.1045 26.6549 31.4086 26.6395 32.1014 27.2278C32.74 27.7899 33.56 28.1026 34.4108 28.1086C35.2615 28.1145 36.0858 27.8132 36.7323 27.2601C36.8198 27.1879 36.9027 27.1065 36.9949 27.0373C37.4035 26.7302 37.8627 26.747 38.1822 27.0834C38.5247 27.4428 38.5247 27.9313 38.1361 28.3122C37.4275 29.0192 36.5272 29.503 35.5465 29.7038C35.3407 29.7468 35.1349 29.7836 34.9229 29.8251C34.9091 30.014 35.0765 30.077 35.1717 30.1738C38.0793 33.0921 40.9976 35.995 43.8959 38.921C44.2031 39.2282 44.3675 39.2451 44.6362 38.921C44.8855 38.63 45.1555 38.3574 45.4442 38.1054C45.8712 37.7122 46.3657 37.703 46.7205 38.0655C47.0754 38.4279 47.0462 38.8979 46.6791 39.2942C46.3984 39.6085 46.1005 39.9069 45.7867 40.1881C45.5517 40.397 45.5041 40.5445 45.6884 40.8471C46.8357 42.7378 46.0969 44.9603 44.0495 45.8512C43.8606 45.9341 43.6348 45.9311 43.8422 46.2536C44.2689 46.918 44.452 47.7099 44.3601 48.4941C44.2682 49.2784 43.9071 50.0065 43.3384 50.5543C42.1542 51.6863 40.5737 51.8184 39.0085 50.9152C38.959 50.8913 38.9076 50.8713 38.8549 50.8553C37.9733 53.4096 35.2977 53.9272 33.6665 52.8014C33.4668 52.6631 33.3885 52.6985 33.3194 52.9181C32.6113 55.1591 29.5041 56.1436 27.4336 53.9795C24.9285 51.3683 22.325 48.8478 19.7661 46.289C19.6382 46.1737 19.5219 46.0461 19.419 45.908C19.2935 45.7461 19.2356 45.5418 19.2577 45.3381C19.2797 45.1344 19.38 44.9472 19.5373 44.816C19.67 44.6737 19.8504 44.5852 20.0441 44.5674C20.2379 44.5495 20.4314 44.6036 20.5879 44.7192C20.7436 44.8297 20.8868 44.957 21.0149 45.0986C23.5226 47.6042 26.0313 50.1094 28.541 52.614C28.6639 52.7369 28.7806 52.8628 28.9081 52.978C29.6515 53.6492 30.6622 53.6354 31.3318 52.9504C31.6405 52.6287 31.8111 52.1991 31.8071 51.7533C31.8031 51.3075 31.6248 50.881 31.3104 50.565C30.4364 49.6527 29.524 48.7756 28.6378 47.8756C28.2292 47.4593 28.2031 46.954 28.5426 46.6007C28.882 46.2475 29.4134 46.2505 29.8604 46.6683C29.9587 46.7589 30.0509 46.8573 30.1446 46.9525C31.5269 48.3348 32.9093 49.7172 34.2916 51.0995C34.8953 51.6955 35.6417 51.7984 36.3437 51.4252C36.666 51.2516 36.9233 50.9781 37.0768 50.6456C37.2303 50.3132 37.2716 49.94 37.1946 49.582C37.1178 49.1658 36.8736 48.8571 36.5802 48.5683C35.1681 47.1614 33.7586 45.7534 32.3517 44.3444C32.0983 44.0925 31.8817 43.8284 31.9432 43.4459C31.964 43.283 32.0319 43.1296 32.1386 43.0047C32.2453 42.8797 32.386 42.7886 32.5437 42.7424C32.92 42.6165 33.2149 42.767 33.4653 43.0266L37.2053 46.7636C38.004 47.5622 38.7981 48.3656 39.6045 49.1581C40.4109 49.9507 41.4277 50.0167 42.1496 49.3009C42.8715 48.5852 42.8361 47.573 42.0236 46.7574C40.0658 44.7873 38.1028 42.8223 36.1348 40.8624C36.0086 40.7453 35.8896 40.6206 35.7784 40.4892C35.4712 40.096 35.4866 39.6091 35.8383 39.3034C35.9894 39.1508 36.1945 39.0639 36.4092 39.0613C36.6239 39.0587 36.831 39.1407 36.9857 39.2896C37.2652 39.52 37.5094 39.7934 37.7659 40.0576C39.0275 41.315 40.288 42.574 41.5475 43.8345C41.7688 44.077 42.057 44.2485 42.3757 44.3275C42.6944 44.4065 43.0294 44.3894 43.3384 44.2784C43.6434 44.1862 43.9144 44.0057 44.1169 43.7597C44.3195 43.5136 44.4446 43.2131 44.4765 42.896C44.5702 42.254 44.2937 41.7533 43.8498 41.3094C41.5848 39.0515 39.3234 36.7896 37.0656 34.5236C35.2915 32.7495 33.5098 30.9817 31.7512 29.1923C31.4532 28.8851 31.3011 28.8851 31.0001 29.1923C29.9925 30.2429 28.9639 31.273 27.9144 32.2826C27.4238 32.775 26.7921 33.1023 26.1069 33.2191C25.4218 33.3358 24.7173 33.2361 24.0914 32.9339C23.462 32.6426 22.9365 32.1663 22.5849 31.5686C22.2334 30.9709 22.0725 30.2801 22.1238 29.5886C22.1703 28.7573 22.5284 27.9741 23.1268 27.3952C23.775 26.7455 24.4308 26.1035 25.145 25.3985C24.6198 25.2541 24.182 25.4215 23.7627 25.5121C23.5415 25.5713 23.3079 25.5654 23.0899 25.4951C22.872 25.4248 22.6789 25.2931 22.5339 25.1159C22.0609 24.6151 21.5509 24.1482 21.0794 23.646C20.872 23.4263 20.7522 23.3726 20.5049 23.6214C17.9552 26.1905 15.3953 28.7504 12.8252 31.3011C12.5687 31.5546 12.6501 31.679 12.859 31.8787C13.372 32.3671 13.8558 32.8862 14.3719 33.3716C14.7328 33.711 14.8142 34.0889 14.7221 34.565C14.5193 35.6156 14.3719 36.6785 14.1584 37.7276C14.1195 37.8725 14.1234 38.0255 14.1694 38.1683C14.2155 38.3111 14.3018 38.4375 14.418 38.5324C15.6175 39.7166 16.8048 40.9131 17.9952 42.105C18.3024 42.4122 18.4468 42.7732 18.2194 43.194C18.1375 43.3602 18.0021 43.4939 17.8349 43.5739C17.6678 43.6538 17.4787 43.6753 17.2979 43.6348C17.0903 43.5965 16.9021 43.4881 16.7649 43.3276C15.4916 42.0543 14.2121 40.7887 12.9496 39.5046C12.7102 39.2689 12.5356 38.9755 12.4425 38.6527C12.3495 38.3299 12.3411 37.9885 12.4182 37.6615C12.5948 36.7599 12.7253 35.8522 12.9004 34.9506C12.9634 34.6065 12.9496 34.3147 12.6347 34.0904C12.5025 33.9805 12.3793 33.8604 12.2661 33.731C11.9804 33.4469 11.7362 33.0199 11.3983 32.9216C11.0604 32.8233 10.853 33.3532 10.5489 33.5605C9.88076 34.0213 8.97148 34.0213 8.37706 33.4423C6.57232 31.6728 4.79522 29.8742 3.01813 28.0772C2.85107 27.8752 2.703 27.6582 2.57578 27.429L2.57885 26.4951ZM59.6901 22.3481C59.5734 22.2237 59.4858 22.1254 59.3921 22.0332C55.6588 18.2957 51.9259 14.5583 48.1935 10.8208C47.9585 10.5858 47.8295 10.5336 47.5653 10.8023C46.0232 12.3721 44.4678 13.929 42.8991 15.4732C42.6979 15.6728 42.6626 15.788 42.8853 16.0108C46.6678 19.78 50.4442 23.5559 54.2145 27.3384C54.3926 27.5181 54.5001 27.5749 54.7121 27.3599C56.2865 25.7686 57.8746 24.1897 59.4582 22.6061C59.5288 22.537 59.5995 22.4495 59.684 22.3542L59.6901 22.3481Z"
              fill="#F04C28"/>
        <path d="M10.1603 28.8083C9.82536 28.8098 9.49348 28.7444 9.18408 28.6161C8.87469 28.4877 8.594 28.299 8.35844 28.0608C8.12288 27.8227 7.93718 27.54 7.81221 27.2292C7.68724 26.9184 7.62549 26.5859 7.6306 26.2509C7.64302 25.5844 7.9155 24.9492 8.38988 24.4808C8.86425 24.0125 9.50293 23.7482 10.1695 23.7443C10.5046 23.7459 10.8361 23.8138 11.1448 23.9443C11.4534 24.0748 11.7332 24.2651 11.9678 24.5043C12.2025 24.7436 12.3874 25.0269 12.5119 25.3381C12.6364 25.6492 12.698 25.9819 12.6931 26.317C12.6913 26.6471 12.6242 26.9737 12.4958 27.2778C12.3674 27.582 12.1801 27.8577 11.9447 28.0893C11.7093 28.3208 11.4305 28.5035 11.1243 28.6269C10.8181 28.7503 10.4904 28.8119 10.1603 28.8083ZM9.35855 26.2248C9.34532 26.4348 9.41468 26.6417 9.55185 26.8012C9.68902 26.9608 9.88313 27.0604 10.0927 27.0788C10.1966 27.0896 10.3015 27.0799 10.4015 27.05C10.5015 27.0202 10.5947 26.9709 10.6756 26.905C10.7565 26.839 10.8236 26.7577 10.873 26.6658C10.9225 26.5739 10.9532 26.4731 10.9636 26.3692C10.9741 26.2605 10.9628 26.1507 10.9304 26.0464C10.8979 25.942 10.8449 25.8453 10.7745 25.7617C10.7041 25.6781 10.6177 25.6095 10.5204 25.5598C10.4231 25.5101 10.3169 25.4803 10.2079 25.4722C9.99766 25.4669 9.79318 25.5415 9.63561 25.6808C9.47804 25.8201 9.37905 26.014 9.35855 26.2233V26.2248Z"
              fill="#F04C28"/>
        <path d="M51.2962 21.6938C51.3018 21.0272 51.5695 20.3896 52.0414 19.9188C52.5134 19.4481 53.1516 19.1819 53.8182 19.1779C54.1531 19.1789 54.4846 19.246 54.7936 19.3753C55.1026 19.5045 55.383 19.6935 55.6189 19.9314C55.8547 20.1692 56.0413 20.4512 56.168 20.7613C56.2947 21.0714 56.3589 21.4034 56.3571 21.7383C56.3515 22.4051 56.0826 23.0426 55.6091 23.5121C55.1356 23.9816 54.4958 24.245 53.829 24.245C53.4942 24.2473 53.1623 24.1827 52.8527 24.0551C52.5432 23.9274 52.2623 23.7393 52.0264 23.5017C51.7905 23.2641 51.6044 22.9818 51.479 22.6713C51.3536 22.3609 51.2915 22.0286 51.2962 21.6938ZM54.6323 21.7383C54.6351 21.5278 54.557 21.3242 54.4141 21.1696C54.2712 21.015 54.0744 20.9211 53.8643 20.9074C53.6535 20.8993 53.4478 20.9737 53.2909 21.1148C53.134 21.2559 53.0384 21.4525 53.0241 21.6631C53.0154 21.772 53.0294 21.8815 53.0653 21.9847C53.1011 22.0879 53.158 22.1825 53.2324 22.2625C53.3068 22.3425 53.397 22.4062 53.4973 22.4495C53.5977 22.4928 53.7059 22.5147 53.8151 22.514C54.026 22.5181 54.2299 22.439 54.3829 22.2939C54.5358 22.1487 54.6254 21.9491 54.6323 21.7383Z"
              fill="#F04C28"/>
    </g>
    <defs>
        <clipPath id="clip0_157_264">
            <rect width="64" height="64" fill="white"/>
        </clipPath>
    </defs>
</svg>
