<svg width="64" height="64" viewBox="0 0 64 64" fill="none" xmlns="http://www.w3.org/2000/svg">
<g clip-path="url(#clip0_157_265)">
<path d="M19.8138 61.4242C19.7969 61.3935 19.7861 61.3474 19.7585 61.3336C17.903 60.412 17.4807 59.2693 18.3039 57.3647C20.1686 53.0548 22.0368 48.7465 23.9086 44.4397C24.1144 43.9697 24.0714 43.8545 23.5292 43.8575C19.2777 43.8775 15.0247 43.8698 10.7732 43.8683C9.26639 43.8683 8.57062 43.1664 8.56909 41.6519C8.56909 38.7592 8.56909 35.867 8.56909 32.9753C8.54664 32.746 8.57335 32.5146 8.64742 32.2964C8.7121 32.1127 8.84096 31.9585 9.0103 31.8623C9.17964 31.7661 9.37805 31.7342 9.56899 31.7727C9.75284 31.7884 9.92516 31.8688 10.0554 31.9996C10.1855 32.1303 10.2652 32.303 10.2801 32.4869C10.2996 32.6772 10.3053 32.8687 10.297 33.0598C10.297 35.8952 10.3062 38.7305 10.2878 41.5659C10.2878 41.9975 10.3692 42.1542 10.8484 42.1526C24.9454 42.1393 39.0429 42.1393 53.1408 42.1526C53.6016 42.1526 53.7107 42.0205 53.7107 41.5736C53.6974 32.2258 53.6974 22.8775 53.7107 13.5287C53.7107 13.1186 53.6385 12.9742 53.1854 12.9757C39.069 12.988 24.9521 12.988 10.8346 12.9757C10.34 12.9757 10.2893 13.1554 10.2909 13.5686C10.3032 18.5113 10.3057 23.4535 10.2986 28.3951C10.3065 28.5867 10.3014 28.7787 10.2832 28.9696C10.2711 29.1633 10.1873 29.3457 10.0482 29.4811C9.90911 29.6165 9.72462 29.6953 9.5306 29.7022C9.09746 29.7468 8.79947 29.5486 8.6382 29.137C8.57328 28.9159 8.55136 28.6844 8.57366 28.455C8.57366 23.54 8.56599 18.608 8.58289 13.6853C8.58289 13.1954 8.52301 12.9803 7.95471 12.8851C6.63072 12.6624 5.69686 11.3169 5.80438 9.96678C5.9165 8.58443 7.06385 7.43247 8.44467 7.4125C10.6088 7.37871 12.773 7.38639 14.9371 7.4125C15.3657 7.4125 15.5054 7.31573 15.4716 6.87952C15.4448 6.34381 15.4448 5.80709 15.4716 5.27138C15.5116 3.79687 16.6036 2.64798 18.009 2.58654C19.4667 2.5251 20.6555 3.56033 20.7952 5.06096C20.8446 5.65312 20.8503 6.24813 20.8121 6.84112C20.7876 7.28041 20.9027 7.41711 21.3681 7.41403C24.1835 7.38946 26.9989 7.40174 29.8159 7.40174C29.9879 7.40174 30.163 7.39253 30.3335 7.40943C30.8235 7.46011 31.1015 7.74273 31.126 8.22962C31.1506 8.71652 30.8619 9.01449 30.3934 9.11126C30.2034 9.13563 30.0115 9.14078 29.8205 9.12662H9.13277C8.9223 9.11944 8.71158 9.12303 8.50148 9.13737C8.24137 9.16001 7.99877 9.27787 7.8202 9.46834C7.64163 9.65882 7.53969 9.90851 7.53386 10.1695C7.52843 10.4202 7.6132 10.6645 7.77276 10.8579C7.93233 11.0513 8.15606 11.1809 8.40319 11.2232C8.61097 11.2554 8.8212 11.2693 9.03141 11.2647H55.0024C55.194 11.2691 55.3857 11.2573 55.5753 11.2293C55.8332 11.1919 56.068 11.0601 56.2343 10.8595C56.4005 10.6589 56.4865 10.4037 56.4754 10.1434C56.462 9.88271 56.3535 9.63596 56.1703 9.44996C55.9872 9.26396 55.7421 9.15164 55.4816 9.1343C55.2912 9.1174 55.0992 9.12662 54.9072 9.12662H34.3362C34.1452 9.1416 33.9532 9.13645 33.7633 9.11126C33.3025 9.00835 33.0106 8.72267 33.0368 8.22502C33.0629 7.72737 33.344 7.45704 33.8355 7.40943C34.0078 7.39763 34.1805 7.39507 34.3531 7.40174C37.1301 7.40174 39.9071 7.40174 42.6841 7.41096C43.0773 7.41096 43.2247 7.32802 43.1971 6.91178C43.1664 6.35721 43.1664 5.80137 43.1971 5.24681C43.2647 3.68628 44.4351 2.55582 45.9296 2.58501C47.3887 2.61419 48.5069 3.77997 48.5407 5.31593C48.5642 5.81337 48.5617 6.3117 48.533 6.80887C48.4961 7.26966 48.6098 7.42325 49.112 7.41557C51.2363 7.38485 53.3636 7.38792 55.4893 7.41557C56.1567 7.42789 56.7972 7.6806 57.2933 8.12725C57.7893 8.57391 58.1075 9.18454 58.1895 9.84698C58.3753 11.1495 57.5506 12.5518 56.2235 12.8237C55.4279 12.9865 55.4263 13.3597 55.4263 13.971C55.4407 23.2051 55.4448 32.4388 55.4386 41.6719C55.4386 42.1987 55.3849 42.704 55.0516 43.1387C54.62 43.7039 54.0363 43.8883 53.339 43.8867C49.0491 43.876 44.7576 43.8867 40.4677 43.8698C39.8994 43.8698 39.8994 44.0142 40.1006 44.4596C40.715 45.842 41.3094 47.2243 41.9023 48.6067C42.1864 49.2702 42.0482 49.7387 41.5229 49.9553C40.9976 50.1718 40.6013 49.9445 40.3264 49.2994C39.6183 47.6713 38.8995 46.0478 38.2237 44.4059C38.0486 43.9789 37.8289 43.8222 37.3789 43.8698C36.9814 43.8906 36.583 43.8906 36.1855 43.8698C36.1532 44.154 36.3068 44.3429 36.3928 44.5441C38.453 49.3117 40.5163 54.0767 42.5827 58.8392C42.6304 58.9639 42.6847 59.0859 42.7455 59.2048C42.9944 59.6517 43.4321 59.8115 43.8591 59.6195C43.9621 59.5794 44.0559 59.5188 44.1348 59.4413C44.2137 59.3638 44.2759 59.2712 44.3179 59.1689C44.3598 59.0666 44.3806 58.9568 44.3788 58.8463C44.377 58.7358 44.3528 58.6268 44.3076 58.5259C44.048 57.8485 43.7485 57.1881 43.4613 56.5291C42.9759 55.4079 42.4859 54.2897 42.0052 53.1669C41.7318 52.5295 41.8516 52.0626 42.3385 51.8368C42.8453 51.6003 43.3062 51.8291 43.5903 52.4804C44.3583 54.2314 45.1185 55.9793 45.8604 57.7379C46.5531 59.3783 45.7406 60.9435 44.0173 61.3459C43.9942 61.3459 43.9804 61.4042 43.962 61.4334H42.8131C41.5429 60.8882 41.0575 59.7439 40.5752 58.5719C39.861 56.8271 39.073 55.1115 38.3419 53.3712C38.1991 53.0348 38.024 52.9335 37.6661 52.935C33.8979 52.9493 30.1302 52.9493 26.3631 52.935C25.9668 52.935 25.8101 53.0717 25.6627 53.4204C24.8547 55.3326 23.9731 57.2188 23.2051 59.1449C22.7643 60.2415 22.1592 61.0971 20.9795 61.4365L19.8138 61.4242ZM27.9036 43.8668C27.4737 43.8871 27.043 43.8841 26.6134 43.8575C26.1527 43.8038 25.956 43.9912 25.7778 44.4074C24.3479 47.7589 22.8903 51.0995 21.4419 54.4433C20.8659 55.7734 20.2807 57.102 19.7185 58.4368C19.4974 58.9605 19.694 59.4305 20.1655 59.6287C20.6094 59.813 21.0471 59.6287 21.2975 59.131C21.3497 59.0297 21.3866 58.9206 21.4327 58.8238L25.2802 49.9476C26.1403 47.9478 27.002 45.9541 27.9036 43.8668ZM31.9969 47.7558C33.1458 47.7558 34.2932 47.7481 35.4405 47.7558C35.7631 47.7558 35.9013 47.7312 35.7262 47.3564C35.2501 46.3171 34.797 45.267 34.3669 44.2062C34.2502 43.9159 34.0843 43.8545 33.8047 43.8575C32.6005 43.8698 31.3959 43.8698 30.1907 43.8575C29.9096 43.8575 29.7437 43.9174 29.627 44.2062C29.1938 45.2645 28.7438 46.3166 28.2677 47.3564C28.0956 47.7312 28.2323 47.7589 28.5549 47.7558C29.7022 47.7481 30.8496 47.7558 31.9969 47.7558ZM26.6626 51.2086H36.0626C37.3851 51.2086 37.3605 51.2178 36.8644 49.9798C36.697 49.5621 36.4773 49.4699 36.0611 49.4745C33.6681 49.4945 31.2735 49.4837 28.8805 49.4837C27.3031 49.4837 27.3031 49.4837 26.7194 50.9567C26.696 51.0396 26.677 51.1237 26.6626 51.2086ZM19.0873 6.19449C19.0873 5.8873 19.1042 5.58011 19.0873 5.27292C19.0473 4.69079 18.6726 4.30834 18.1657 4.29759C17.6312 4.28684 17.2272 4.68926 17.2011 5.29289C17.1812 5.77057 17.2395 6.25285 17.1858 6.72593C17.1212 7.29116 17.3209 7.42479 17.8692 7.40482C19.0888 7.36335 19.0903 7.39407 19.0873 6.19449ZM46.8066 6.18681C46.8066 5.89958 46.8173 5.61236 46.8066 5.32514C46.7789 4.71076 46.3995 4.30834 45.8681 4.30066C45.3367 4.29298 44.9465 4.68772 44.9127 5.30364C44.8897 5.76442 44.9419 6.22521 44.8974 6.68599C44.8436 7.23433 44.9726 7.45397 45.5916 7.41711C46.805 7.35106 46.8081 7.39406 46.8066 6.18681Z" fill="black"/>
<path d="M46.1215 19.5665C45.3536 19.5665 44.7284 19.5665 44.1033 19.5665C43.4228 19.5665 43.0389 19.2593 43.0281 18.7156C43.0143 18.1519 43.3937 17.8447 44.1217 17.8431C45.4242 17.8431 46.7262 17.8431 48.0276 17.8431C48.7772 17.8431 49.0767 18.1334 49.0828 18.8814C49.0951 20.2024 49.0951 21.5233 49.0828 22.8442C49.0828 23.5169 48.7403 23.8871 48.192 23.8733C47.6437 23.8595 47.3702 23.5123 47.361 22.8549C47.3533 22.2237 47.361 21.5939 47.361 20.9473C47.0753 20.9289 46.9847 21.1531 46.8496 21.2867C44.5968 23.5292 42.3487 25.7753 40.1052 28.025C39.4232 28.7069 39.0715 28.7023 38.3803 28.0127C37.7429 27.3783 37.0947 26.7532 36.4788 26.0973C36.2208 25.8224 36.0764 25.8378 35.8153 26.0973C33.8646 28.0726 31.8971 30.0309 29.9326 31.9939C29.2015 32.7234 28.8574 32.7204 28.1232 31.9831C27.1356 30.9955 26.1342 30.0202 25.1665 29.011C24.8762 28.7038 24.7334 28.6962 24.4278 29.011C21.8704 31.596 19.2915 34.1626 16.7173 36.7338C16.5783 36.8898 16.4239 37.0313 16.2565 37.1562C16.1005 37.2727 15.9072 37.3278 15.7132 37.3111C15.5192 37.2944 15.3381 37.207 15.2044 37.0656C15.0483 36.9336 14.9487 36.747 14.9258 36.544C14.903 36.3409 14.9587 36.1368 15.0815 35.9735C15.181 35.8327 15.2959 35.7034 15.424 35.588C18.2522 32.7567 21.0814 29.927 23.9117 27.0988C24.6382 26.3738 24.9515 26.3769 25.6811 27.0988C26.6825 28.1002 27.6947 29.0955 28.6777 30.1123C28.9573 30.4011 29.1047 30.398 29.3873 30.1123C31.3503 28.1233 33.3332 26.1511 35.3099 24.1759C35.9704 23.5154 36.3267 23.5185 36.9995 24.1866C37.6722 24.8548 38.3066 25.4784 38.9471 26.1388C39.1483 26.3462 39.2712 26.4352 39.5292 26.1741C41.6749 24.0008 43.8453 21.8412 46.1215 19.5665Z" fill="black"/>
<path d="M18.4191 27.1771C16.8527 27.1667 15.3533 26.5398 14.2455 25.4323C13.1377 24.3248 12.5104 22.8256 12.4996 21.2591C12.5004 19.6834 13.1268 18.1725 14.2411 17.0585C15.3554 15.9445 16.8665 15.3184 18.4422 15.318C20.0185 15.3184 21.5304 15.9442 22.646 17.058C23.7615 18.1718 24.3896 19.6827 24.3925 21.2591C24.3803 22.8345 23.7453 24.341 22.6261 25.4498C21.507 26.5586 19.9946 27.1796 18.4191 27.1771ZM17.5882 21.2468C17.5882 20.018 17.579 18.7985 17.5882 17.5744C17.5882 17.2103 17.5206 17.1059 17.1366 17.2272C16.2961 17.5081 15.5638 18.0433 15.0409 18.7588C14.5181 19.4743 14.2306 20.3346 14.2183 21.2207C14.2201 22.1149 14.5028 22.9859 15.0265 23.7108C15.5501 24.4356 16.2882 24.9776 17.1366 25.2603C17.5252 25.3862 17.5882 25.291 17.582 24.9254C17.579 23.6951 17.5882 22.471 17.5882 21.2468ZM22.577 20.3851C22.1515 18.777 21.2115 17.7464 19.7124 17.2195C19.416 17.1151 19.3023 17.1689 19.3085 17.5068C19.3254 18.3454 19.3223 19.1856 19.3085 20.0257C19.3085 20.2822 19.3561 20.3974 19.6494 20.3928C20.6109 20.3744 21.5571 20.3867 22.577 20.3867V20.3851ZM22.577 22.1116C21.5586 22.1116 20.6017 22.1238 19.6448 22.1039C19.3376 22.1039 19.3038 22.2206 19.3085 22.4756C19.3207 23.2988 19.3238 24.1221 19.3085 24.9454C19.3085 25.2848 19.3668 25.3831 19.7262 25.2526C21.2161 24.7319 22.1361 23.7043 22.5785 22.1116H22.577Z" fill="black"/>
<path d="M46.3504 29.8789C47.3442 29.8789 48.3379 29.8789 49.3301 29.8789C49.9568 29.8789 50.3362 30.2168 50.3377 30.7298C50.3392 31.2428 49.9614 31.593 49.3363 31.5976C47.3508 31.6119 45.3638 31.6119 43.3752 31.5976C42.7609 31.5976 42.3661 31.2351 42.3646 30.7359C42.363 30.2367 42.7639 29.8819 43.4275 29.8773C44.4013 29.8742 45.3751 29.8789 46.3504 29.8789Z" fill="black"/>
<path d="M46.3182 35.27C45.3428 35.27 44.369 35.27 43.3999 35.27C42.7717 35.27 42.383 34.9383 42.3692 34.436C42.3554 33.9338 42.7593 33.5528 43.4121 33.5498C45.3802 33.5406 47.3482 33.5406 49.3163 33.5498C49.9491 33.5498 50.3285 33.8846 50.3424 34.3915C50.3577 34.9214 49.9645 35.2639 49.3025 35.27C48.3041 35.2762 47.3119 35.27 46.3182 35.27Z" fill="black"/>
<path d="M46.355 38.9486C45.3812 38.9486 44.4059 38.9486 43.4367 38.9486C42.7717 38.9486 42.3692 38.6107 42.3692 38.0916C42.3692 37.5724 42.767 37.2299 43.4321 37.2268C45.3776 37.2197 47.3267 37.2197 49.2794 37.2268C49.9491 37.2268 50.3408 37.5617 50.3423 38.0885C50.3439 38.6153 49.9537 38.9425 49.2825 38.9486C48.3041 38.9548 47.3365 38.9486 46.355 38.9486Z" fill="black"/>
</g>
<defs>
<clipPath id="clip0_157_265">
<rect width="64" height="64" fill="white"/>
</clipPath>
</defs>
</svg>
